<mxfile host="app.diagrams.net" agent="Mozilla/5.0 (Windows NT 10.0; Win64; x64) AppleWebKit/537.36 (KHTML, like Gecko) Chrome/130.0.0.0 Safari/537.36" version="24.8.2">
  <diagram id="C5RBs43oDa-KdzZeNtuy" name="Page-1">
    <mxGraphModel dx="2801" dy="1184" grid="1" gridSize="10" guides="1" tooltips="1" connect="1" arrows="1" fold="1" page="1" pageScale="1" pageWidth="827" pageHeight="1169" math="0" shadow="0">
      <root>
        <mxCell id="WIyWlLk6GJQsqaUBKTNV-0" />
        <mxCell id="WIyWlLk6GJQsqaUBKTNV-1" parent="WIyWlLk6GJQsqaUBKTNV-0" />
        <mxCell id="-v3b5ov0XtTsQ5-gV4r--28" value="" style="rhombus;whiteSpace=wrap;html=1;" parent="WIyWlLk6GJQsqaUBKTNV-1" vertex="1">
          <mxGeometry x="82.5" y="520" width="155" height="120" as="geometry" />
        </mxCell>
        <mxCell id="-v3b5ov0XtTsQ5-gV4r--12" value="" style="edgeStyle=none;curved=1;rounded=0;orthogonalLoop=1;jettySize=auto;html=1;fontSize=12;startSize=8;endSize=8;" parent="WIyWlLk6GJQsqaUBKTNV-1" source="-v3b5ov0XtTsQ5-gV4r--3" target="-v3b5ov0XtTsQ5-gV4r--8" edge="1">
          <mxGeometry relative="1" as="geometry" />
        </mxCell>
        <mxCell id="-v3b5ov0XtTsQ5-gV4r--3" value="Main" style="rounded=1;whiteSpace=wrap;html=1;" parent="WIyWlLk6GJQsqaUBKTNV-1" vertex="1">
          <mxGeometry x="353" y="30" width="120" height="60" as="geometry" />
        </mxCell>
        <mxCell id="-v3b5ov0XtTsQ5-gV4r--10" style="edgeStyle=none;curved=1;rounded=0;orthogonalLoop=1;jettySize=auto;html=1;exitX=0.5;exitY=1;exitDx=0;exitDy=0;entryX=0.5;entryY=0;entryDx=0;entryDy=0;fontSize=12;startSize=8;endSize=8;" parent="WIyWlLk6GJQsqaUBKTNV-1" source="-v3b5ov0XtTsQ5-gV4r--4" target="-v3b5ov0XtTsQ5-gV4r--5" edge="1">
          <mxGeometry relative="1" as="geometry" />
        </mxCell>
        <mxCell id="-v3b5ov0XtTsQ5-gV4r--4" value="CreateTargets" style="rounded=1;whiteSpace=wrap;html=1;" parent="WIyWlLk6GJQsqaUBKTNV-1" vertex="1">
          <mxGeometry x="530" y="130" width="120" height="60" as="geometry" />
        </mxCell>
        <mxCell id="-v3b5ov0XtTsQ5-gV4r--5" value="FillNumbers" style="rounded=1;whiteSpace=wrap;html=1;" parent="WIyWlLk6GJQsqaUBKTNV-1" vertex="1">
          <mxGeometry x="530" y="220" width="120" height="60" as="geometry" />
        </mxCell>
        <mxCell id="-v3b5ov0XtTsQ5-gV4r--9" style="edgeStyle=none;curved=1;rounded=0;orthogonalLoop=1;jettySize=auto;html=1;entryX=0;entryY=0.5;entryDx=0;entryDy=0;fontSize=12;startSize=8;endSize=8;" parent="WIyWlLk6GJQsqaUBKTNV-1" source="-v3b5ov0XtTsQ5-gV4r--8" target="-v3b5ov0XtTsQ5-gV4r--4" edge="1">
          <mxGeometry relative="1" as="geometry" />
        </mxCell>
        <mxCell id="-v3b5ov0XtTsQ5-gV4r--17" value="" style="edgeStyle=none;curved=1;rounded=0;orthogonalLoop=1;jettySize=auto;html=1;fontSize=12;startSize=8;endSize=8;" parent="WIyWlLk6GJQsqaUBKTNV-1" source="-v3b5ov0XtTsQ5-gV4r--8" target="-v3b5ov0XtTsQ5-gV4r--16" edge="1">
          <mxGeometry relative="1" as="geometry" />
        </mxCell>
        <mxCell id="-v3b5ov0XtTsQ5-gV4r--8" value="Choice == &quot;y&quot;:" style="rhombus;whiteSpace=wrap;html=1;" parent="WIyWlLk6GJQsqaUBKTNV-1" vertex="1">
          <mxGeometry x="363" y="120" width="100" height="80" as="geometry" />
        </mxCell>
        <mxCell id="-v3b5ov0XtTsQ5-gV4r--32" style="edgeStyle=none;curved=1;rounded=0;orthogonalLoop=1;jettySize=auto;html=1;exitX=0.5;exitY=1;exitDx=0;exitDy=0;entryX=0.5;entryY=0;entryDx=0;entryDy=0;fontSize=12;startSize=8;endSize=8;" parent="WIyWlLk6GJQsqaUBKTNV-1" source="-v3b5ov0XtTsQ5-gV4r--13" target="-v3b5ov0XtTsQ5-gV4r--19" edge="1">
          <mxGeometry relative="1" as="geometry" />
        </mxCell>
        <mxCell id="-v3b5ov0XtTsQ5-gV4r--13" value="DisplayState" style="rounded=1;whiteSpace=wrap;html=1;" parent="WIyWlLk6GJQsqaUBKTNV-1" vertex="1">
          <mxGeometry x="100" y="360" width="120" height="60" as="geometry" />
        </mxCell>
        <mxCell id="-v3b5ov0XtTsQ5-gV4r--31" style="edgeStyle=none;curved=1;rounded=0;orthogonalLoop=1;jettySize=auto;html=1;exitX=0.5;exitY=1;exitDx=0;exitDy=0;entryX=0.5;entryY=0;entryDx=0;entryDy=0;fontSize=12;startSize=8;endSize=8;" parent="WIyWlLk6GJQsqaUBKTNV-1" source="-v3b5ov0XtTsQ5-gV4r--15" target="-v3b5ov0XtTsQ5-gV4r--13" edge="1">
          <mxGeometry relative="1" as="geometry" />
        </mxCell>
        <mxCell id="-v3b5ov0XtTsQ5-gV4r--15" value="while not GameOver:" style="rounded=0;whiteSpace=wrap;html=1;" parent="WIyWlLk6GJQsqaUBKTNV-1" vertex="1">
          <mxGeometry x="85" y="290" width="150" height="30" as="geometry" />
        </mxCell>
        <mxCell id="-v3b5ov0XtTsQ5-gV4r--16" value="PlayGame" style="shape=process;whiteSpace=wrap;html=1;backgroundOutline=1;fillColor=#f8cecc;strokeColor=#b85450;" parent="WIyWlLk6GJQsqaUBKTNV-1" vertex="1">
          <mxGeometry x="353" y="290" width="120" height="60" as="geometry" />
        </mxCell>
        <mxCell id="-v3b5ov0XtTsQ5-gV4r--30" style="edgeStyle=none;curved=1;rounded=0;orthogonalLoop=1;jettySize=auto;html=1;exitX=0.5;exitY=1;exitDx=0;exitDy=0;entryX=0.5;entryY=0;entryDx=0;entryDy=0;fontSize=12;startSize=8;endSize=8;" parent="WIyWlLk6GJQsqaUBKTNV-1" source="-v3b5ov0XtTsQ5-gV4r--18" target="-v3b5ov0XtTsQ5-gV4r--15" edge="1">
          <mxGeometry relative="1" as="geometry" />
        </mxCell>
        <mxCell id="-v3b5ov0XtTsQ5-gV4r--18" value="PlayGame" style="shape=process;whiteSpace=wrap;html=1;backgroundOutline=1;fillColor=#f8cecc;strokeColor=#b85450;" parent="WIyWlLk6GJQsqaUBKTNV-1" vertex="1">
          <mxGeometry x="100" y="190" width="120" height="60" as="geometry" />
        </mxCell>
        <mxCell id="-v3b5ov0XtTsQ5-gV4r--33" style="edgeStyle=none;curved=1;rounded=0;orthogonalLoop=1;jettySize=auto;html=1;exitX=0.5;exitY=1;exitDx=0;exitDy=0;entryX=0.5;entryY=0;entryDx=0;entryDy=0;fontSize=12;startSize=8;endSize=8;" parent="WIyWlLk6GJQsqaUBKTNV-1" source="-v3b5ov0XtTsQ5-gV4r--19" target="-v3b5ov0XtTsQ5-gV4r--28" edge="1">
          <mxGeometry relative="1" as="geometry" />
        </mxCell>
        <mxCell id="-v3b5ov0XtTsQ5-gV4r--19" value="&quot;Enter an Expression&quot;" style="shape=parallelogram;perimeter=parallelogramPerimeter;whiteSpace=wrap;html=1;fixedSize=1;" parent="WIyWlLk6GJQsqaUBKTNV-1" vertex="1">
          <mxGeometry x="85" y="455" width="150" height="30" as="geometry" />
        </mxCell>
        <mxCell id="-v3b5ov0XtTsQ5-gV4r--23" value="CheckIfUser-&lt;div&gt;InputValid&lt;/div&gt;" style="shape=process;whiteSpace=wrap;html=1;backgroundOutline=1;fillColor=#dae8fc;strokeColor=#6c8ebf;" parent="WIyWlLk6GJQsqaUBKTNV-1" vertex="1">
          <mxGeometry x="115" y="560" width="90" height="40" as="geometry" />
        </mxCell>
        <mxCell id="-v3b5ov0XtTsQ5-gV4r--24" value="CheckIfUser-&lt;div&gt;InputValid&lt;/div&gt;" style="shape=process;whiteSpace=wrap;html=1;backgroundOutline=1;fillColor=#dae8fc;strokeColor=#6c8ebf;" parent="WIyWlLk6GJQsqaUBKTNV-1" vertex="1">
          <mxGeometry x="-340" y="200" width="120" height="60" as="geometry" />
        </mxCell>
        <mxCell id="-v3b5ov0XtTsQ5-gV4r--26" value="&lt;div&gt;if re.search(&quot;^([0-9]+[\\+\\-\\*\\/])+[0-9]+$&quot;, UserInput) is not None:&lt;/div&gt;&lt;div&gt;&amp;nbsp; &amp;nbsp; &amp;nbsp; &amp;nbsp; return True&lt;/div&gt;&lt;div&gt;&amp;nbsp; &amp;nbsp; else:&lt;/div&gt;&lt;div&gt;&amp;nbsp; &amp;nbsp; &amp;nbsp; &amp;nbsp; return False&lt;/div&gt;" style="rounded=0;whiteSpace=wrap;html=1;align=left;" parent="WIyWlLk6GJQsqaUBKTNV-1" vertex="1">
          <mxGeometry x="-440" y="280" width="350" height="70" as="geometry" />
        </mxCell>
        <mxCell id="-v3b5ov0XtTsQ5-gV4r--34" value="" style="rounded=0;whiteSpace=wrap;html=1;" parent="WIyWlLk6GJQsqaUBKTNV-1" vertex="1">
          <mxGeometry x="95" y="670" width="130" height="60" as="geometry" />
        </mxCell>
        <mxCell id="-v3b5ov0XtTsQ5-gV4r--35" value="ConvertToRPN" style="shape=process;whiteSpace=wrap;html=1;backgroundOutline=1;fillColor=#d5e8d4;strokeColor=#82b366;" parent="WIyWlLk6GJQsqaUBKTNV-1" vertex="1">
          <mxGeometry x="102.5" y="677.5" width="115" height="45" as="geometry" />
        </mxCell>
        <mxCell id="-v3b5ov0XtTsQ5-gV4r--36" value="ConvertToRPN" style="shape=process;whiteSpace=wrap;html=1;backgroundOutline=1;fillColor=#d5e8d4;strokeColor=#82b366;" parent="WIyWlLk6GJQsqaUBKTNV-1" vertex="1">
          <mxGeometry x="-762.5" y="390" width="120" height="60" as="geometry" />
        </mxCell>
        <mxCell id="-v3b5ov0XtTsQ5-gV4r--37" value="Question may ask to modify the code such that it can accept numbers(rather than accepting formula) for instance, if the target is the number 8 and you have been given the number 8. You should be able to simply type &quot;8&quot; rather than a whole formula." style="text;html=1;align=center;verticalAlign=middle;whiteSpace=wrap;rounded=0;fontSize=16;" parent="WIyWlLk6GJQsqaUBKTNV-1" vertex="1">
          <mxGeometry x="-430" y="50" width="400" height="115" as="geometry" />
        </mxCell>
        <mxCell id="-v3b5ov0XtTsQ5-gV4r--38" value="&lt;h1 style=&quot;margin-top: 0px;&quot;&gt;Potential Question:&lt;/h1&gt;" style="text;html=1;whiteSpace=wrap;overflow=hidden;rounded=0;" parent="WIyWlLk6GJQsqaUBKTNV-1" vertex="1">
          <mxGeometry x="-340" y="20" width="230" height="40" as="geometry" />
        </mxCell>
        <mxCell id="nkGsaYFJsJ_S0IKPwyXY-1" value="&lt;pre&gt;&lt;span style=&quot;color: rgb(0, 0, 0); font-family: Helvetica; font-size: 12px; font-style: normal; font-variant-ligatures: normal; font-variant-caps: normal; font-weight: 400; letter-spacing: normal; orphans: 2; text-indent: 0px; text-transform: none; widows: 2; word-spacing: 0px; -webkit-text-stroke-width: 0px; white-space: normal; background-color: rgb(251, 251, 251); text-decoration-thickness: initial; text-decoration-style: initial; text-decoration-color: initial; float: none; display: inline !important;&quot;&gt;Position = 0&lt;br&gt;&lt;/span&gt;&lt;span style=&quot;color: rgb(0, 0, 0); font-family: Helvetica; font-size: 12px; font-style: normal; font-variant-ligatures: normal; font-variant-caps: normal; font-weight: 400; letter-spacing: normal; orphans: 2; text-indent: 0px; text-transform: none; widows: 2; word-spacing: 0px; -webkit-text-stroke-width: 0px; white-space: normal; background-color: rgb(251, 251, 251); text-decoration-thickness: initial; text-decoration-style: initial; text-decoration-color: initial; float: none; display: inline !important;&quot;&gt;Precedence = {&quot;+&quot;: 2, &quot;-&quot;: 2, &quot;*&quot;: 4, &quot;/&quot;: 4}&lt;br&gt;&lt;/span&gt;&lt;span style=&quot;color: rgb(0, 0, 0); font-family: Helvetica; font-size: 12px; font-style: normal; font-variant-ligatures: normal; font-variant-caps: normal; font-weight: 400; letter-spacing: normal; orphans: 2; text-indent: 0px; text-transform: none; widows: 2; word-spacing: 0px; -webkit-text-stroke-width: 0px; white-space: normal; background-color: rgb(251, 251, 251); text-decoration-thickness: initial; text-decoration-style: initial; text-decoration-color: initial; float: none; display: inline !important;&quot;&gt;Operators = []&lt;/span&gt;&lt;/pre&gt;" style="rounded=0;whiteSpace=wrap;html=1;align=left;" vertex="1" parent="WIyWlLk6GJQsqaUBKTNV-1">
          <mxGeometry x="-802.5" y="470" width="220" height="50" as="geometry" />
        </mxCell>
        <mxCell id="nkGsaYFJsJ_S0IKPwyXY-2" value="GetNumberFrom&lt;div&gt;-UserInput&lt;/div&gt;" style="shape=process;whiteSpace=wrap;html=1;backgroundOutline=1;fillColor=#fff2cc;strokeColor=#d6b656;" vertex="1" parent="WIyWlLk6GJQsqaUBKTNV-1">
          <mxGeometry x="-762.5" y="540" width="120" height="60" as="geometry" />
        </mxCell>
        <mxCell id="nkGsaYFJsJ_S0IKPwyXY-3" value="GetNumberFrom&lt;div&gt;-UserInput&lt;/div&gt;" style="shape=process;whiteSpace=wrap;html=1;backgroundOutline=1;fillColor=#fff2cc;strokeColor=#d6b656;" vertex="1" parent="WIyWlLk6GJQsqaUBKTNV-1">
          <mxGeometry x="-1360" y="560" width="120" height="60" as="geometry" />
        </mxCell>
        <UserObject label="Number = &quot;&quot;&lt;br&gt;&amp;nbsp; &amp;nbsp; MoreDigits = True&lt;br&gt;&amp;nbsp; &amp;nbsp; while MoreDigits:&lt;br&gt;&amp;nbsp; &amp;nbsp; &amp;nbsp; &amp;nbsp; if not(re.search(&quot;[0-9]&quot;, str(UserInput[Position])) is None):&lt;br&gt;&amp;nbsp; &amp;nbsp; &amp;nbsp; &amp;nbsp; &amp;nbsp; &amp;nbsp; Number += UserInput[Position]&lt;br&gt;&amp;nbsp; &amp;nbsp; &amp;nbsp; &amp;nbsp; else:&lt;br&gt;&amp;nbsp; &amp;nbsp; &amp;nbsp; &amp;nbsp; &amp;nbsp; &amp;nbsp; MoreDigits = False&amp;nbsp; &amp;nbsp; &amp;nbsp; &amp;nbsp; &amp;nbsp; &amp;nbsp;&amp;nbsp;&lt;br&gt;&amp;nbsp; &amp;nbsp; &amp;nbsp; &amp;nbsp; Position += 1&lt;br&gt;&amp;nbsp; &amp;nbsp; &amp;nbsp; &amp;nbsp; if Position == len(UserInput):&lt;br&gt;&amp;nbsp; &amp;nbsp; &amp;nbsp; &amp;nbsp; &amp;nbsp; &amp;nbsp; MoreDigits = False&lt;br&gt;&amp;nbsp; &amp;nbsp; if Number == &quot;&quot;:&lt;br&gt;&amp;nbsp; &amp;nbsp; &amp;nbsp; &amp;nbsp; return -1, Position&lt;br&gt;&amp;nbsp; &amp;nbsp; else:&lt;br&gt;&amp;nbsp; &amp;nbsp; &amp;nbsp; &amp;nbsp; return int(Number), Position&lt;div&gt;&lt;br&gt;&lt;/div&gt;&lt;div&gt;&lt;font color=&quot;#009900&quot;&gt;# int(Number) returns &quot;23&quot; from &quot; 23 + 7 * 8 &quot;&lt;/font&gt;&lt;/div&gt;" id="nkGsaYFJsJ_S0IKPwyXY-8">
          <mxCell style="rounded=0;whiteSpace=wrap;html=1;align=left;" vertex="1" parent="WIyWlLk6GJQsqaUBKTNV-1">
            <mxGeometry x="-1460" y="640" width="340" height="240" as="geometry" />
          </mxCell>
        </UserObject>
        <UserObject label="UserInputInRPN = []&lt;br&gt;UserInputInRPN.append(str(Operand))&lt;br&gt;Operators.append(UserInput[Position - 1])&lt;div&gt;&lt;br&gt;&lt;/div&gt;&lt;div&gt;&lt;font color=&quot;#009900&quot;&gt;# appends &quot;23&quot; into UserInputInRPN list&lt;/font&gt;&lt;/div&gt;&lt;div&gt;&lt;font color=&quot;#009900&quot;&gt;# since an operator &lt;b&gt;always&lt;/b&gt;&amp;nbsp;comes after &quot;23&quot;, append operator into Operators list by&amp;nbsp;&lt;span style=&quot;background-color: initial;&quot;&gt;Operators.append(UserInput[Position - 1])&lt;/span&gt;&lt;/font&gt;&lt;/div&gt;" id="nkGsaYFJsJ_S0IKPwyXY-9">
          <mxCell style="rounded=0;whiteSpace=wrap;html=1;align=left;" vertex="1" parent="WIyWlLk6GJQsqaUBKTNV-1">
            <mxGeometry x="-890" y="637.5" width="367.5" height="110" as="geometry" />
          </mxCell>
        </UserObject>
        <mxCell id="nkGsaYFJsJ_S0IKPwyXY-10" value="" style="shape=image;verticalLabelPosition=bottom;labelBackgroundColor=default;verticalAlign=top;aspect=fixed;imageAspect=0;image=data:image/png,iVBORw0KGgoAAAANSUhEUgAAAjAAAAIGCAIAAADFsCKIAAAgAElEQVR4Aey9DZSkVZnnWd9VWZ+ZVUV9ZVBkCgirZZODusKCUtgw6sHWEkZpWxtsHA7aKyvCiBwztUoK0mbcxmpH59S0oUZrnrYbR5nuXTTJJsvTqO3appnMLm7T57RrZWLXtFKGAg44UhBb9/t57scbEZmRkTcz/nHqwBtv3Pvc5/nde5//vW9Evu+yUv8A/oEACIAACIDAghNYtuAewAEQAAEQAAEQKPUPQJCwQQQBEAABEMiCAAQpi27A4ggEQAAEQACCBEECARAAARDIggAEKYtuwMoIBEAABEAAggRBAgEQAAEQyIIABCmLbsDKCARAAARAAIIEQQIBEAABEMiCAAQpi27AyggEQAAEQACCBEECARAAARDIggAEKYtuwMoIBEAABEAAggRBAgEQAAEQyIIABCmLbsDKCARAAARAAIIEQQIBEAABEMiCQEyQKlPVyZGmtHpwbGZ6bLiZKsOj0zOjQ00hmEWVkYnqVLmp52s0H3s66na03jz5gearzIJ8smebb70dpkrN93sLA5lF660cdckJgn5Pjr00f1SZEwEIEsdXlJiGR6er1enxQTWBh8anq/5rokKthYIkLZhKEQmPtF6nSiwtsirOYZN3IlV4LIFjkcQ0ODZj4iBMfDKRNUek9cqUMxUuINynvrWIKepAZFE1MmFa8mMMyLMAdS22uIm17uxXq1U+GEinhI4FrZf6SflqlXrLHLOj0XRuqT8cdQPypImctt58vydNMQeq4Yo2gsv1bLUa9rswKCEEMUZM9YtllomQjRNyPhio/QMtXQrQuY/jWRKAIHFwkdSgC4hpMD0T5ne9VhJzmyWsSGqgxmUu4DkrNj3qVYlNzpGJKpuT3mouUqUylYxL5wXPIM16Mmu4NCeSso5LZByPSbg/Y2pXnuRZQ+Ysn5LJfZFAVIqpzkxPhzlRqoXzs9F+V/REXuN1w9bZGeG5gybi0tUFLiowwj7tZRUdPcOGSgF5FREtoM6IFg1DAcG13nS/p02ZTilPVsU04axKUjBcu8Gg8vtdWhM8YzOOcba4jG5JBbKjjtLwBqqEQzmbELz5grftJABBaiwxSb0ZHUsKEsk41iCdDPakPWgsMbFJEqkSmZxijexSYTiYIlWaTkw2CnEgUoBJByK32mO5wuVpKBQkZkpUdxpGtI1x0FUigZjYw+4IzzAydRJTxJNY6zQWWoX3SLh2qdN6pN+V84y8RlQ86go6izqvjtlageGSbUVal70/6tTX2ayDi/W7rJWecXVMiTFgBdg54A9UhasOeVY9JIAzLScAQeJjLj5ARUaYqPDJzFIkzzgNpAa+jjM+xFvXn0arRCZnmO+YqxFJEJaDJS0ZaoWJSTTn5r9nKpSBiMPOPZFKnIA1H4j1OWhX96At4B8Ukucq67rDuepC0J8KB6wwi0DoEiEYLYWtR/td+M/Jm4jqCBIl43WWsWBGo1hPULfteRIjGzY6LtqEtdlEvwuYRTOu0JTCEnM7iquQvHUeB20jAEHi0yw2QO28FQc2y5AclDgfTQ0i54oXm8nGh1jr7qp9rEpkcsqJZ66nO6mwQyqsIvx3L3u5w3iVSEwi74gXK+8lo5BM2LpeugpTPI/I5XbZ+haQj5pSYXpuSIYzoxX7tR9vKHrRzPVvfIMSb93A51rFLEhu3IEm+z1K3vRvdNTZrmS7h9n1O2mIjS5xsU7+simAL1qP4jIOcBpqzy1Hezh+UqaMV5FVYxGuOHmLCwftJgBB4sQjA9StZ6PTQwmGuUZPrRWmhui3I5HWicFYleg8t5NTXgFjWaPufJazl2mMXK76KcM1Ia+QWH31klFIrNBhkbit5KtsZTK7/IhLcoEpzw21meCWeYwF5MOrSVKrClo3EkuhmYVItTox5m2YYt8hOTmUn5I9aIq8OV8w6pgumvJ6gDXZ74EpocQaqQ+/Pi7W73r1IH+CG46fOgM40VkyWNkFfAiJCeKdoeRx3HYCECSS8WMrZbvu01kmWKfzrz2otYLUIIqJyeZNhnrTI6xSnBZPz0Pqv8pB9ao4ATY5q86lG5nudTLyPAxzUxOts6+jZF7m8AtMBe16QXlviyQhMKW7uKB1xS0kr3mGSbP5ftemiAyYzkqNuoiimyoqooBJYmesf/zGhq4wbtdkUWL1cLnWKbfmBEmApYsAOhnlcYirHnmOKDDY9ny95P2BIPFB5g9Qt7BV16fkf+mgD5aKboymUoNuMTJv/da5b1JdPA2rN8/bIkg0wzIVicCp47BIGQYvTx9hbiowFbBlGVMqqGlF9VeKPPXH9azol4LWZdaIxK6ySeBbkRwmq1i3zb7EpKr4qBONcjk35e0Yc5JgPoovRCKmBKXwxfagdXA5znVnXIK89MGKognBRicP6EC1AJmy8vK8x+M2UaalBCBIfAimEpOEHubESGpz3eOnhvKY+Rum1DfSQet1q4TzfLAyov9SyvwG2vsD5KDKcLni/qg5km7ClXJlnNgUmZfIpEgoOi/EVqx+60Pjo+SPt3jr1LIway7f6S7zTTnyQoaJS6K86DuTu3kr0lpAXmWfSI+bVoLWh0fHyJ+Tx2I3bnAtjO7LU0OliLzC4o+604FE4hVRNN/vSVO6RxS0EH5Ev4v63VmL8g/Ip37fMVCqiyvR79CehSIAQXKjX/RB4QANp0d07pm+9FODzIluIRlZzQWt160SmZwiFdpXkPtiS3sRhX1F1tHBStlbEXtrTPJpGGPgMF8R+61LTVK+ea3EAjHkI4JkxEDZYov3dL8TcTU6ZJsIApGNWox2n6cquk4Jmo6NumS/E7aiqYCJ/AKGN+FVEdX0qJhrvxNTFsvpg+ikCHAV97ueleGMi2ibatGRl0eKjBd7iCuYcTQQHLefAASpCUFqsnt8QapfvfnpEcxzHk6QRqPzuZ5jgSDFzNYz4lKMt9FpsGJYbBaxh0b0mbaQb2HrSVPiNyZckGbfWej3+rMp3RGoOxsCECROrfnElB6RzaeG5lufRVJuvgoSEx8kMsU3jzFiRA+e5vu9laMuqVjo93SXJaGhypwIQJA4voVNDc23Pou02HwVJCY+SCBIzafj5kddhLmS4RaaKr5En1b9pG+oMkcCMUFqfrTN0QlUBwEQAAEQAAEIEhY7IAACIAACWRCAIGXRDVgZgQAIgAAIQJAgSCAAAiAAAlkQgCBl0Q1YGYEACIAACECQIEggAAIgAAJZEIAgZdENWBmBAAiAAAhAkCBIIAACIAACWRCAIGXRDVgZgQAIgAAIQJAgSCAAAiAAAlkQgCBl0Q1YGYEACIAACECQIEggAAIgAAJZEIAgZdENWBmBAAiAAAhAkCBIIAACIAACWRCAIGXRDVgZgQAIgAAIQJAgSCAAAiAAAlkQgCBl0Q1YGYEACIAACECQIEggAAIgAAJZEIAgZdENWBmBAAiAAAhAkCBIIAACIAACWRCAIGXRDVgZgQAIgAAIQJAgSCAAAiAAAlkQgCBl0Q1YGYEACIAACECQIEggAAIgAAJZEIAgZdENWBmBAAiAAAhAkCBIIAACIAACWRCAIGXRDVgZgQAIgAAIQJAgSCAAAiAAAlkQgCBl0Q1YGYEACIAACECQIEggAAIgAAJZEJgvQSpPVquTI0tI8IdHp6vTY8MsospUVb2mxwf763fn4NhMNVVyaHxa25oqN2CKuYHyIAACILAkCFBBGpmoMhUpTwYpuOGYO0KQJI0imeG46pcUCjdvguQ0T0tftVqdqNTX0bj4WTGWxmZvRyMSeq9fc17HCM76NXeYclIEywgxvNVrzt7G8fKRgzIg0CEEAkGqzowO6SQFQWpkENSXGZNc6pecV0EybuighD7NPl+LWFqWi6UaBUm/EfhhGalGbgyHBZo4IyV8etrf15J+jO2bPc54CwIg0DABT5CmRsdm7IUpJ0iVKXqtyU7IwbGZiYpcQorUpg50LpA7pHG77LU2ZTpQJeUKkya1ofFpkZXspySt8NU9txZd41sjohVTPkgfwqxphS35zUnJ0S6HjR3WoqVBMl209QFVcrRgcR0XJGKN4rK+zSqVz3ELK2IJnCEEGKLi8zGATVRnxmmHNjwHmAVXS4yWiYruNXJJVp/XteJdNlv/XeuwAAKdSMATpJnRoZEJs3BuRJDUJSaZssVy21ZRSVxfyZFyYq7qiPRqjsXcdnlNq064bKdVGuyk4XLFfN9Dk1RCWUVyGRopm61hLEUGYmZyR7RwtHVR0qmjCMpXuEh2o7FzXNIBwXk2gjQyYZXYBJLIy3HgtqObqhUt3EJTJd6/0eaaPRn0L0dHR9esSDbrD8qDwBImEAqSWBKqROkyBZ/ndoqKA7lMDg+8RCneqgU1NyUyiNG/UnJu06Qcz4+FPUSXtDSbJDVGeuLpYrKwpZHwwbUuStpg+8Ol9wCjobJbAa45pL96PteHrBYc+nuU2SiibULxEV2sXmaxYgs0caDGofOtFXs4n5U/Suc4OJuILjHAYAEElg6BiCCVxEUztt3xFp52ilrpUomgpJKszAJOgWTepFVM5rH/N6lfTHVz7GVboVvi5W8pvGL0ramiKto051TWzyxie0denidNClKsdQtBZxYqxsrz4Iyo4r88x2YxFlubQwWZWe3SlOdKikxQggC7XtpUFlY9aPpaWG5iwNDBQ479XvOHTWthzqI3UQUElg6BqCDpK28ud/N1up2isxSk1Lq1QJBUghAFqo0kLJnHTY7rd3sUkd1MLDYKmfJkVrWORTxpQpBSrfMWE/shLsmiivWKZMmm0rRfOJA9v0CzDUVwNT5DeO94ndWkJx4u7+3swvR7TSzXiGSK2MnbJh2enUuoBQJLlUBckMQ1q+nxUfuzb5PEFQU7ResIErmS4zZMBdmwsbzmZDI9+XkZbw2rEoqXB3mWiTjZhCClWhfciN5YjG5she2GZ9JROztFZZKBNFY9pjSNdVzKfgpXqnzReT5Q3agrAhKLiJQPuomPnNZ3UB1/isInbqMYCCxGAglBkj9PcJfIRMYxv0SQx+oSTR1B4lXMhRQxn+mqf3CI/vrAbmvItCQ/NyjJFXTd6zAiExk5lDJgnJczVmbAcfvbDdlt9PKO9JAohyyQzONBwpKX/mKtK0+M87RFE2wku6VxmVhspA2NP9F9c1/Rj5TdHzD5HjbkBk2dImrtkkQUGwO0fNExoUoHbVEVAz9RJuxfcmbOsScabZoh7IDAkiCQFCT5xb67BK+Sqfw6Y6ps1qHFgjQ9NpL42becxuarEZOgB2I/JZDJQkmgKU/FLD1vRWJSr9P2y5NMkORvB5goCjsiLaoX+6mh4mA+kv/XYsOikB/YRB9vXTCcHFHfc4jy5FqcO2laMvo9oDTYnHY9omKn0pum4XKuKE/abaRKrAyPfe4GGXznbazpup8y+LOywJog8uPOu/4yK4+5NwQLIAACVJDcfAMXEAABEAABEGgzAQgSZBgEQAAEQCALAhCkLLqhzcsQNAcCIAACGRKAIEGQQAAEQAAEsiAAQcqiGzJcqsAlEAABEGgzAQgSBAkEQAAEQCALAhCkLLqhzcsQNAcCIAACGRKAIEGQQAAEQAAEsiAAQcqiGzJcqsAlEAABEGgzAQgSBAkEQAAEQCALAhCkLLqhzcsQNAcCIAACGRKAIEGQQAAEQAAEsiAAQcqiGzJcqsAlEAABEGgzAQgSBAkEQAAEQCALAhCkLLqhzcsQNAcCIAACGRKAIEGQQAAEQAAEsiAAQcqiGzJcqsAlEAABEGgzAQgSBAkEQAAEQCALAhCkLLqhzcsQNAcCIAACGRKAIEGQQAAEQAAEsiAAQcqiGzJcqsAlEAABEGgzAQgSBAkEQAAEQCALAhCkLLqhzcsQNAcCIAACGRKAIEGQQAAEQAAEsiAAQcqiGzJcqsAlEAABEGgzAQgSBAkEQAAEQCALAhCkLLqhzcsQNAcCIAACGRKAIEGQQAAEQAAEsiAAQcqiGzJcqsAlEAABEGgzAQgSBAkEQAAEQCALAhCkLLqhzcsQNAcCIAACGRKAIEGQQAAEQAAEsiAAQcqiGzJcqsAlEAABEGgzAQgSBAkEQAAEQCALAqEgDY9OV91renywPwtHS5Wp6bHhNst1O5sbHJvR2PNhnknXww0QAIHOIOAJ0shEtVp1CXFkNBsNGBybWcqCVJmqVqfKcsyVJ6vVyZF2aiHaAgEQAIEcCDBBEqnQqRHZGFWm6HmxlrfFKlMiew6Nm22Vzqql/uHR6ZnRoQFhU76InEjZU2dd5lXl3UcTFe2A2zpoS1ViijjprSBEincva+00dOuS+Ng5QM/bKIT98mR1ojLg3GigiuhayYS2W9Df5UkSlKgo0BWUx0cgAAIgsPQIUEESYhBPoMWCxDZVNo3qS3+BQdqKLKPzuypvErGQE3Ns9g0N6ZCSpXROT4kuVVmpPU6TlICFrYvzRpy8KmKgNCFIInYCiiKyPHEAAiAAAkucABGkdBIv1REkl7uJYoskGyZxz5R4qy9VeeX9pMz2EN5mKHybiiV1vt9rjjlDhYcEODLBJNOz0NS48eqy1kmLTdlEYRAAARBYZARaIUj28h0TBpFVyapfc3EXvtzlNKVnXnkvR4vrZhF5Yy0y9LYh5oPTP1ZY7mb8DZnd/cSblhsgF4Q8Ym2lfQs0xgsWgsR7pwmSqAgCILCICRBB8ncJJKriHVKzgmQuc/G83GJB0sb1N0lmD9diQTJm55ox68TOQZF+mWu7MAUCIAACGRGggiS/1Y+qResEiVyj8yjUScrxbUpDGZlYnu0lu9jmzNvWeOE095ZFl3SyOZuQMRAAARBYXASYIOkfy4WaJC9P6etR6lKV3RVxrSLBExlgsiHO26thpf6BwSH110VeeT/di0twtlFmMJamKyPqJ9TSH2Zqdj9qiAmS+t0d2SQNDbO/2aLQ6jtsv0uTy4LGI61rGQVAAARAYJEQ4IIknBbp275sIrZfyYjfIFARoscsZk9gqGxITTJtmCa88kxFrK6oSqYKtcmP9ZU63YZXXv1qTn9G1JfFSGJh2xdyXqip/WvW8KeGTQkSM0VEjjdH9J7Hi2IgAAIgsPgJhIKETAcCIAACIAACC0AAgrQA0LHRAQEQAAEQCAlAkCBIIAACIAACWRCAIGXRDeFKAWdAAARAoNMIQJAgSCAAAiAAAlkQgCBl0Q2dtg5CvCAAAiAQEoAgQZBAAARAAASyIABByqIbwpUCzoAACIBApxGAIEGQQAAEQAAEsiAAQcqiGzptHYR4QQAEQCAkAEGCIIEACIAACGRBAIKURTeEKwWcAQEQAIFOIwBBgiCBAAiAAAhkQQCClEU3dNo6CPGCAAiAQEgAggRBAgEQAAEQyIIABCmLbghXCjgDAiAAAp1GAIIEQQIBEAABEMiCAAQpi27otHUQ4gUBEACBkAAECYIEAiAAAiCQBQEIUhbdEK4UcAYEQAAEOo0ABAmCBAIgAAIgkAUBCFIW3dBp6yDECwIgAAIhAQgSBAkEQAAEQCALAhCkLLohXCngDAiAAAh0GgEIEgQJBEAABEAgCwIQpCy6odPWQYgXBEAABEICECQIEgiAAAiAQBYEIEhZdEO4UsAZEAABEOg0AhAkCBIIgAAIgEAWBCBIWXRDp62DEC8IgAAIhAQgSBAkEAABEACBLAhAkLLohnClgDMgAAIg0GkEIEgQJBAAARAAgSwIQJCy6IZOWwchXhAAARAICUCQIEggAAIgAAJZEIAgZdEN4UoBZ0AABECg0whAkCBIIAACIAACWRCAIGXRDZ22DkK8IAACIBASgCBBkEAABEAABLIgAEHKohvClQLOgAAIgECnEYAgQZBAAARAAASyIABByqIbOm0dhHhBAARAICQAQYIggQAIgAAIZEEAgpRFN4QrBZwBARAAgU4jAEGCIIEACIAACGRBAIKURTd02joI8YIACIBASACCBEECARAAARDIggAEKYtuCFcKOAMCIAACnUYAggRBAgEQAAEQyIIABCmLbui0dRDiBQEQAIGQAAQJggQCIAACIJAFAQhSFt0QrhRwBgRAAAQ6jQAECYIEAiAAAiCQBQEIUhbd0GnrIMQLAiAAAiEBCBIECQRAAARAIAsCEKQsuiFcKfAzw6PT1emxYX5yUXgOJ0EABECgUQJMkAbHZqr8NVFpxNDIxPT4YH8jJVFmdgQWVpBGJqrVatDF5UkzViZHGlZKaUrWg742DG12Ywa1QGDxEQgEKcg79afN0Pj0LGpBwBYFgaHx6Wp1enrGEySxdtGd3rhYSjVqQr0W33SqP1kWRafDSRBYIAKNCVJlqjo54vZPVn5ktjLrZLXuJVsl8ildDpcnqxOVAWetfoYSKc+9XPmRiepU2bUyMzrUSApzi/QqM0WuiaksLC+RCT8nR+K7AYml5ByYKttedCeJ2f4BUlgE5GFxMVadKds0LSwTH8Fie6RfgD1d0tYiMWo44iNSvjCHiiZ0Z7Eq+ryuW5mqEoflSdk1loY8EO064I30FMqAAAh0FoGGBalqs4nMgzSzVKYiCU5kZKsQQgNsPlW50r4tTIi6M8oVe1FImDIXEpW06NwtFc7l8YRZWp0H4hxm55VwGm9ZICWRiGPJ3ZkaKPXTKrR1Ns5EKyzjs09L/cIl44NhQvI71Zgih60wFLXlNS3eBu6NTLjOVSpr+1pVDwVJhGA6LtJEor9QEgRAoIMIBIJEVulu2cuXwH56igmSKENEi1aZ40q5PGlTM8/vTAYSXei5GourzLVBeE6W/zQQKUgRCUzHzh0mGwhmlpw3aToQJD9YZ9kzNUfaygHPptznUQVyrRuHQ0GSGlYRFwDli1ZPdFaEA0qCAAgsZQKBIEXXzjyP++mJf6pSktoGMXUzlomiNExW5F/3MnuFuut0377w3H9RRZF7I7r2DzcHVMNigZ8OvyB2vaki+0WTwVXTVSp+5qOByA6JuiESt1MsESNZCrRZkCKxK2dUD5oxIDuCkvd7isSOj0AABDqFwDwKkpENH2XTgiSSr1tQk+qzEiSSrIOsp1WBXlmKqK/dMKUFKRW7blHrqwvKeqITuu+k0xtdcmEFSVyHJM772zV1odLTG17Fs4DNEAiAAAj0D8yXIPl5nLAmiuJrlc3L9IAv+Wlq5jkukhYD+34eZwWEGEyPD/Iy3lqexZUQJFaGBE6DOn2c5CAC8bI5jVr67AfrLppxXHK75ssbi9rzKvo2iEj442SbE5MWwkt2vIrvf9MuRf3ESRAAgUVNoBWCFE8uIkWSjcLwoPkJXDIRJ3K3yIY2QYvcZ802L0jy0ha9ojU4ZP7aVFjWq356mUu2Tlu0xwPi+pu5BsUHQSL2oZGygUAvsp2uS361Ic3aeDWTQJDUhUGjNFpKZeG6gkQLc7eTqhAIEv2Zg/CNIpU2Q0FSv6vUQjsLHxp0FcVAAAQWL4FAkPhXLHoVzDNvmJ5EflEvlqBFXrYvu6BuVpBU7tZ25K/Pjc7NQpD01y3WK21KaCpRGvnTOJVkVbCjNkCjAaLLORY+CGKxy1Zs0zSJO4DiY+9qmKshjghhV4ucbI8gnQ422jqH4Cuc8E2/vC2gX7LYDj4FARBYkgSYIC3JCOcYVKi+czSI6iAAAiAAAlECEKQ6a3MIUnTc4CQIgAAItJwABAmCVIdAy8ccDIIACIBAlAAECekYBEAABEAgCwIQpCy6IbpYwEkQAAEQ6CgCECQIEgiAAAiAQBYEIEhZdENHLYIQLAiAAAhECUCQIEggAAIgAAJZEIAgZdEN0cUCToIACIBARxGAIEGQQAAEQAAEsiAAQcqiGzpqEYRgQQAEQCBKAIIEQQIBEAABEMiCAAQpi26ILhZwEgRAAAQ6igAECYIEAiAAAiCQBQEIUhbd0FGLIAQLAiAAAlECECQIEgiAAAiAQBYEIEhZdEN0sYCTIAACINBRBCBIECQQAAEQAIEsCECQsuiGjloEIVgQAAEQiBKAIEGQQAAEQAAEsiAAQcqiG6KLBZwEARAAgY4iAEGCIIEACIAACGRBAIKURTd01CIIwYIACIBAlAAECYIEAiAAAiCQBQEIUhbdEF0s4CQIgAAIdBQBCBIECQRAAARAIAsCEKQsuqGjFkEIFgRAAASiBCBIECQQAAEQAIEsCECQsuiG6GIBJ0EABECgowhAkCBIIAACIAACWRCAIGXRDR21CEKwIAACIBAlUCRIO3vP29Kze8PGreu6Nq3f2LO5e+f2XWdHreAkCIAACIAACMyRQFyQ9uzd17Whu2tT96sOvPvNt9173T33XX3HZ1799vd379q7Zu36nb3nz7FVVAcBEAABEAABj0BEkPactW/V6rXnXfy6O7722OFjJ+m/gw+euPTa961YsXLHnhd7hlr2tjJVrU6V+5u4kjY4NlOdHh9spkrLvJ2XRodHp6sTlYYILLnYG4p63rovJC/OTI8Nz1uLzccrJoh8zfuYzy/2eZluzXcB3Jg3AoEg9V2wZu36i6+5ieqQd/zWoT9dsXLV7r0vLfWPTOjJof43Mzo0595NCVJlKpUX5j8puzAb1Im55a8wLSappmIfHJtpi6tJx+ZGYKHMhuQzTcqpfm8p9lbGXp6sVqutyA/zlgpbim6hBvCib9cXpO5tpXNe+do7x5/wRMh7e9k7b12/casSJJv45JhrbnPT+CAYHJtJCVLjRmZVkkzLofHpdkyqMC02Pc7Kk43usWbFpGl/FkkrLSDfnkjbIkit6mVBtTo905a50yqfYWdhCPiCtHpN13uOPqTk56K33HjVzR+3UnTdPfed/fL9Sqs++o3H13Rt6O370kSVJj6xk7D6VLLXFujJ/oGSSOvu5WTGnWeqJuYef7kqtonw8oX9iLZemapOjjiDQS35EWtdeuvOCNGdHKmXdNyOqlolF3wKW5dyLuKcHhtp6JKdDZBHYe1YZq5HHGHVUENXophBF7vMMqoN5sDw6LRYCNtarM64wmEAACAASURBVLMmR0jvO6quRzy9jzosTk6VbfjeBV53ngxFsZWfKjtrbKlOXGXkyXkKqsgUHfOSjYsxMmaEq6yAaFETJnir9qTLEYIYwz4gzrjekfy9t3pAsBYjXsktSCL2gVI/d4z7ELWmHRPwGfZoYZzscAJMkPbs3bdu45YvTj752e//4vCxkzv6zr/gyrdaQbrq5o8vW7bsIw9M/8l3ql999KlzXnH59p1fYAokr+Dp9EfHn0wEJi1y0Qo34MEsVT1UniSZndcKJ6fMemb009ZVtqJznkzaUr+c1TxHiBRDZl2kLe6M9Ha4XDEpjHJIt07NimMqohH7RYlJORCTtHrkYw2JxETCt7OFpE6Z+1wZnbBMdztXdbJ2JfVHNHZZxnQcHU7UN9mh1ivmIaVN+11fW9a5WBImx8alGHkRjtNU4YZabZDqdsDQ1hPD2AKMdRProHLFrnvYeWWBQZNwxBkymP0OMh/R2LkzpKc07TB2X+fqWSA2KRzamzgGAUKACdKOPede8aZra7XaqRdqR75TvfpDn77xU1+3gnTblx+54oYPHz528pfPPl+r1e7+zJ91bytTQaJjnc4Hnej1tI/MLjasEzO5KUFKts6Nh7OaeSIx+WW4hbB8cEbMap2deV1imZQRjdZDRPqPGCGTXy5jA0lowqyOIpVE/PPUciSLaWs8fAPKi51Wp2ZJdKJ1g1RvuLWGJfvdQ+r891oPW6T+KB94GWdqgK9dRiYa2BCI7jNSIcU4vn0JB3/Y78xUP1UOzxPuPxlLpkcs6jB2atYWa+yAgipqtDFrsLBECXBB2n3upW+4plarvfBC7Z6//bmVIu/gZ786VavVPvLJz3VvFYJEXnY6BUOZJiNxLF584WkGIi1JoIdz0s6fYHKmW29+u+MbT7hnndEHJkYVqRMksxgPRNpuC/RVkUBODB/ChBuhBQSBiAXjVZw8tywCSQXrn6fAE00rayR8Q0zkR+/l3Is67Kc2m2GpG5KG85MnZWeBn48IeWBTaBvpLGdKXYs2U8A1TfslOBbVdRVPTcm1TYHHMZHd5A9Ltbm32kYFSTThvyJjI+x9ScNr12wQ4/tm06dBmHzdUFQs4kbMGootUQJMkHad+ZLuXXuf/PXzJ556TonQO+4a2XfR5bfe9sGBiy57/XvvVCcnfvJsrVa77MB1W8/4PN0hkXEWTONwfup5Qua2QhyWlOcXSpD4slde04tkVTZnRLIwWUZdc89FkBThFPlwiCf6IhAq2t3iOJ7v+GrAjBae30Mf3JeOZqgI/82xKJ+NIOlLvir7Uw/Z8DCBq5MWl41CnhfknYVw8DcpSEYmo3iTJ2m3eiGIj0KZ5KHxKn6v8U+TPqBYZxFgglTqH1ixctUPfvTE9x5/9vCxk+85+tBZfX0HDhy45ZZb9u/ff+GFF775tnsPHzt5/w+f/sWzp9Zt3LL7zC8mBMnf2ofzR43dcKYFyU73R6SkGcShcW+x6QrwnOjOG1ORGSUmkpvPnuVIebk4JetKkmiSrduspIIlVQockx8lQvAMRsZ0AU8XVCqJ+Oepw+mmefimFVGe4Iq4qko6h0XrRPOIM17vEDhc9lwVz1saiPIkdC9lSm1tnYqYAJMRqQLCycmRyLrHbXdCHyILI23HDBiCIgyqjkvG80i75iNpId6hCeOOeaKA8Zw1gZMdRsAXpM09u+8+cvRbx5/5zana9R84eNddd1UqlePHjx86dOjIkSPvuOGmnz596uEfP/PQdx/pWr+FLE6DQUbHnzg2GWRopOz+Vik24hOrcpJc/LYiH6Va51MorCjOEPmRc4M4SQNJDxSRC8wuSho0sadbp56wKulW1LylFelMJvnI4KpLPtYWjSVln5cRuJrZIakLgySPDw3rv3FOOSx7wRJmraf6PX2djQKMkSe9r/kUCJL6UYy7Phbn4HEWPk+N8r9qkJ6YZZCYEb5mU7d1v9BNlaxiv51i1sSO0xD2PPHfhrGTX+uo7aAZ53RsxI9p1/gNmSGK8x1PwBeknb3n9/X1DR69/9QLtWtuP3L59bd7/0489dwXvvnYJZe+pmf73iJBcldaxPx0M1NlEztn3TJQbqrseXngaol+Egs99TILajFh+IvmNXfp3NlJS4KaRf7U1eMjbLp4CrHy7k+CClsXiVW+TkfnqiQHaGHsUfhp8vEMYpq2jgnvov3FspJwzAE3RkQTPHzWqEqgGoBJxCmHVWobMzcs8BYQpBZxo0hFbICMPLGj/dJhJk25PZyKuiBeikX/kJoMXfEp6V/5hwqNjHkbSHV6vEx/LsGuJbrVEusC6lIyduKVgGJ6itZNHatec4vR4hmETzuUgC9Ipf6B7m2l1Wu7Hnj4B95vGdTb+7/96N4XvXjTlh29fRckB3RqUOI8CMydQKapLVBi4WczKXvuZGABBBY5gYgglfoHujZ0l0qls1520ds/Vhl64PjhYycPPnjiXZ/46sCVbyuVSitXrYEUgcCCEchYkMw+xmxxyIZywXAt8gwFbh1FIC5I23edvXz58u5tpQ0bt65YsWrZsmXLl6/oWr+lZ/uZK1et3tyzu6MYIdi8CGQqSOyqsnd5My+AkCgQyJVAXJAwf0AABEAABECgzQQgSB365WGbxxmaAwEQAIG6BCBIECQQAAEQAIEsCECQsuiGugsHFAABEACBJU8AggRBAgEQAAEQyIIABCmLbljyCx8ECAIgAAJ1CUCQIEggAAIgAAJZEIAgZdENdRcOKAACIAACS57AfAmSuK1WZ/2ZOr/FWSN/d9bovc70n/2TuwBAREEABEBgCRKAILWqUyFIrSIJOyAAAh1KAILUqo6fV0FqlZOwAwIgAAL5EqCCNDw6PTM65B6d4O7ezy8u2WexDI7NTFRU+amyfjyEvou+vGQ3bh8PwS83uSbYZb2h8Wlxh3/7qXdD/ghE+bQI/XAAejN8+SCAkbB1UX5yxN2ln19UJNZI05Wpqrz/P38GgXLG3Y1fciC1xP3WTI2xYXfl152fKnOqrgy/3Ge95QzN7TtNK/b5QNqObMj1ILeZagvnQQAEQGABCXiCVHUPTvae90WeeUMFScmATJriTvv2kTAqjeqEyJKj0BuTKGVCt6qgk3Uzd+yvjJxuVOETLRpTqdaV5JjMLjwxx/wRnF7s7jlAzOGgRSNIIhBzLPXVtEJjl7pLqBYOAtGuMRKJN1KXMY9oeaSKIYmPQAAEQGBBCPiCRLIeyZ58Lc8ESWqAOMMPRLIm2dblbm6KPbCc5fHmcyixnGpdCpITPBuIeh6akUn+IwIhTtEq/Bodcd7SUD3qWiEelpp74GbzggR1AQEQAIHFRsAXJJKUGxIkJWA2BdsDp0CSiE3K4sB/mXQvcro5bpSj3LJYg0YCi1o3ZYRaOLGR+xVrRx5obU6piO+t0yfRuveSjVo4eunBLReuRyKC5B6hSyNqlFvzeg/LIAACIDDPBBZCkMyFNT8F+ym+btIUKuK2dCS/z0qQ7EU23i4xy7Y1vrdMkJxXpP9aLUjKTy3J0RZ9wsQZfAQCIAACuRGYT0EiK3enEG5TwvN+/0DJT/FBAS+f8vJ2E3YasWgu1rrcn7lNGKkS3YJIB1KCJL4cIhomnNFviVkeQtIUL+aFKd6m3VOFueXcBhn8AQEQAIFGCDQmSCLbml8iyGOV7gfHZtTCXKTg8DskXsVcDJQrerJJGhwyP0LjAlPfe+qV+m2eESF10Uy3SIpJQbKbqmCDZRRFND00PBjL9VRsnMoqCXTVueX+4cEhJTnivOEgjqlqFsYbCtJwuWK4Rb+OIlEXWq6rhSgAAiAAAm0i0JggqZSnvxdxv1cuFqTpscgPr2VylJpkvmVx15qaFSTPK/2rcQFOSkXkR+dKTkbtdzxEF4VjYvdmX2YjxTcfVJDUxkVVmKioH83bbpN6Y4wZEVK7QHV2qkwcTmqG1BVjRv5fiy5jSH92oU1BkCIbTds7OAABEMiRABWkHP1LZurCdEP3LtQCl5OlEy+NEccgAAIgsEgJQJAgSyAAAiAAAlkQgCBl0Q2LdDkDt0EABECghQSWpiC1EBBMgQAIgAAItIcABAk7JBAAARAAgSwIQJCy6Ib2rD7QCgiAAAjkTACCBEECARAAARDIggAEKYtuyHnNAt9AAARAoD0EIEgQJBAAARAAgSwIQJCy6Ib2rD7QCgiAAAjkTACCBEECARAAARDIggAEKYtuyHnNAt9AAARAoD0EIoIkbvjmbkqNfA0CIAACIAAC7SDgC5K4Len0jHvYROE9TNujmWgFBEAABECgEwhwQdKPWqCP7WmHKnYCaMQIAiAAAiBQTIALkt4PQZAgwyAAAiAAAu0mAEFqN/HiBQI+BQEQAIGOJQBBgiCBAAiAAAhkQQCClEU3dOyCCIGDAAiAgCUAQYIggQAIgAAIZEEAgpRFN9gFAg5AAARAoGMJQJAgSCAAAiAAAlkQiApSFp517BoBgYMACIBAZxKAIEF9QQAEQAAEsiAAQcqiGzpzNYSoQQAEQIASgCBBkEAABEAABLIgAEHKohvoGgHHIAACINCZBCBIECQQAAEQAIEsCECQsuiGzlwNIWoQAAEQoAQgSBAkEAABEACBLAhAkLLoBrpGwDEIgAAIdCaBIkHa2Xvelp7dGzZuXde1af3Gns3dO7fvOrszMSFqEAABEACB+SYQF6Q9e/d1beju2tT9qgPvfvNt9153z31X3/GZV7/9/d279q5Zu35n7/nz7RbsgwAIgAAIdBqBiCDtOWvfqtVrz7v4dXd87bHDx07SfwcfPHHpte9bsWLljj0vni9Slalqdaqsn13b0PW0wbGZ6vT4YDNV5sv51vgwPDpdnah0ZuwNRT1v3ReSF2emx4bnrcXm4xUTRL7mfcznF3tr5lfzzNFuuwgEgtR3wZq16y++5iaqQ97xW4f+dMXKVbv3vrTULx52Tl4zo0Nz7uyUIFWmUnmhLYIkI533FKDohWkxSTUV++DYTIOSllGqbdegT4ccks80Kaf6PR1acgilq7Qs9vKkSRKTI+nmZuEhqiw1Ar4gdW8rnfPK1945/oQnQt7by9556/qNW5Ug2cQnh11zm5vGR+fg2ExKkBo3MsuSQ+PT1er0dNv2YWFabHrYlScb3WPNksnCi0fTTBqItAXkG2ilBZ63RZBa4Gepf4C42jKFaw9ktNJ+Ar4grV7T9Z6jDyn5uegtN15188etFF13z31nv3y/0qqPfuPxNV0bevu+NFGliU9sI6w+ley1BXqyf6Ak87tZMpHrIe48UzUxoPnLKZNtIty72I9o65Wp6uSIMxjUkh+x1kv9OkmReVV3orKNI/M23bpdRU6PjTR0yc4GyKOwdiwz1yOOsPjQOVaoLsygW+EKLPrFHBgenRYbZVvLtSLhk953nF2PVPkmO+qwODlVtuF7F3jdeTIUxVZ+quyssVaIq4w8OU8v2RWZomNewnExRua2cJUVEC1qwgRv1Z50Ay8cjeKM6x3J33ure4u1GPFKDoZE7ANqOpiOrzZwqVxPH91QEHLKAZzvTAJMkPbs3bdu45YvTj752e//4vCxkzv6zr/gyrdaQbrq5o8vW7bsIw9M/8l3ql999KlzXnH59p1fYAokr+Dp9Ccmv5n2MhGYtMhFK0yFiSFbnkwm0HByyqwXa11lKzrnyaTVqzmeI+ywiLQSOq/PDJcrJoVRDunWqXFxTEU02YpIT7SiddWKKDkz4G1n+Ucu03nnRWJieqNLktQpc58rozOp6W5iWYXvSuqPWAiijOk4OpwoBKUrxg7zkNIORp3N/pKwzsu0dXmeypjOv05ThRtqtUGq2wFDWxeB1E39PFnzeMsVe3UrMmWo26rLxBkymP0OMh/JGOs6prpGuMdj93XOGy2xtyMTrkPVYtT2LxkbtH9x3MEEmCDt2HPuFW+6tlarnXqhduQ71as/9OkbP/V1K0i3ffmRK2748OFjJ3/57PO1Wu3uz/xZ97YyFSQ61ul84HkzMrvYOE7M5KYEKdk6Nx7OauYJHxZNFSZ2SNJJtk7KiEbrISKOJbzyDKqZ34RZ7T/NsKRRpve+w5Espq3x8A0iz1VaPeEwUxqW45L97iF1cXmthy1Sf2IYnakBsT0yMik7sX7mFd1npELuruJSEQ7+sN+ZqX6qHFwSPBS0W/3jMHZqtjE5oXz8odKYBd8r1FrKBLgg7T730jdcU6vVXnihds/f/txKkXfws1+dqtVqH/nk57q3CkEiLzudgqFMk5E4Fi9v8VWYtsRMiJeP7BLSrbOUkdpexPs7TAEmpcbKmxhVpHq7kGzdSxnC/8gOIzYzE14lLBivUiT9iGiv0db98xR4oul+L19baEIDvJdzL+pwMsdRN6R95ycn7Czw8+byLOEQ2BQJnSiNM6Wk0UwB17SNNHYgqusqnpqSa5sCj2MiOyLs96QgiSb8V2OjK4zdbhDj+2bCzQRL+QjPQ8k3JekAw3GnEmCCtOvMl3Tv2vvkr58/8dRzSoTecdfIvosuv/W2Dw5cdNnr33unOjnxk2drtdplB67besbn6Q6JDMdgKIfzU88TMrdVH4Ql5flFJEgiNZgsw66eLbggKcIp8uEcSPRFsJan3S2O4/mOh29GC8/voQ/uS0czVJI5jroh05zzn7fiLPDzcxQktTbSyd94G43InbS4eKYWnjsL4eBvUpCMTLp2G5GBgKerLj4KZdL0KTXOCTvytAyOQUATYIJU6h9YsXLVD370xPcef/bwsZPvOfrQWX19Bw4cuOWWW/bv33/hhRe++bZ7Dx87ef8Pn/7Fs6fWbdyy+8wvJgTJ39qH80eN3XCmBclOOxopaaZHaNxbbLoCPCe688ZUbEZpBxovzF0liSbZus1Kqi1SpZ5jCa88gzoEGh13MlJAFE6lD/88dTjdNA/fOCPKe8t/8xHzyjksWieaR5xJ9ntyW+N5SwNRrYfuFWRY/YOOqP+pk6IHJ0f45T65d7eX8qRMeojCftd2zIAhKMKgGNiUY2ot5bXLCsc71DPOCbslglcMb0FAEPAFaXPP7ruPHP3W8Wd+c6p2/QcO3nXXXZVK5fjx44cOHTpy5Mg7brjpp0+fevjHzzz03Ue61m8p2oCTNKEuPuhV89BI2f2tUjjb5YUdt71wnRTOQDs3Ih+lWudTKKwozsRa51+DOa+sD/RA5ALzXYI0aLJnunXqCati8gu1T49pRXqe5CPjbV3ysbZoLCn7vAxPQNQmD99Z47uB0tCw/hvnlMNSkCxh1nqq35OCxC7bxsiHQ7RAkKQ1cnksvlOkTLTqT43yv2qQnphtjeDja3ak3ylGWcV+O8WsiRYNYc8T/20YO/m1TuRSuRlp3A5xVRi0XrkBwMvjfCcT8AVpZ+/5fX19g0fvP/VC7Zrbj1x+/e3evxNPPfeFbz52yaWv6dm+t0iQ3JUWMUHdzFTZxE5atwyUmyp7Xh64WmLIioWeeplVmxzf5qT8v7vKQS/BOzs8J5KpoueSP3XJVAkLp8cNc9X9SVBh6yKxytfp6FwV4gBvrjD2KPw0eW7ZTyvWMeFdtL+M+ko7wjEHnPrPw2eNqgSqAZhEnHJYqc6YuWGBt4AgtYgbRSpiA2TkiR3tlw4zacrt4VTUBfFSLHIDRC/QWYy6XfmnAo2MeRtIdXq8TH8uwa4lutUS6wLqUjJ2b9SZnqJ1Y8fUsSV0RxV/piR5xpigcJSAL0il/oHubaXVa7seePgH3m8Z1Nv7v/3o3he9eNOWHb19F0Qt4iQIzC8BJUhun51JXgiUWPjZaMqeX2JIiCCwSAhEBKnUP9C1obtUKp31sove/rHK0APHDx87efDBE+/6xFcHrnxbqVRauWoN5g8ILBiBjAXJ7GPMH5CSDeWC4VokmQh8QCDyHZKCsn3X2cuXL+/eVtqwceuKFauWLVu2fPmKrvVberafuXLV6s09u8EOBBaMQKaCxK4qe5c3F4wV1AgEFhWB+A4J8wcEQAAEQAAE2kwAgpTJNxBwAwRAAAQ6nQAEqdNHQJtXQGgOBEAABFIEIEgQJBAAARAAgSwIQJCy6IbUegHnQQAEQKBzCECQIEggAAIgAAJZEIAgZdENnbMCQqQgAAIgkCIAQYIggQAIgAAIZEFgvgRJ3L2qs/5Mnd/irJE/Rmv0XmfR55ZmMXpSyxycBwEQAIFZEIAgtSqzQ5BaRRJ2QAAEOpQABKlVHT+vgtQqJ2EHBEAABPIlQAVJPV7MPTrB3b2fX1yyD2IYHJuZqKjyU2X9eAj9AAh5yW5cPVYyeJqLa4Jd1hsanxZ3+LefkmdJJK6AyadF6Jv00+cYyQcBjISti/KTI+5m+PyiIrFGmq5MVeX9//kzCFSPurvxSw6klrjfmqkxNuy2ru78VJlTdWV4sNZbcuNOv3XREnsGhHq2XuIxENx+ql2cBwEQAIE2E/AEqeqey+I974vkOypISgZk0hR32rePhFFpVEuazMJG3oTemGOZ0K0q6GTdzB37KyOnG1XIRIvGVKp1JTkmswtPzDF7UJt8aq1RF/asM+Zw0KKpIgIxx1JfTSs0dqm7hGphx4t2jZFIvJG6jLmuEilm6OEjEAABEFhwAr4gkaxHsidfyzNBkhogzvADkaxJtnW5m5tiDyxnebz5HEosp1qXguQEzwaintZsZJL/iEAIUrQKv0ZHnLc0VO+6VoiHTT2CNvowaYcUogICIAACS4KAL0gkKTckSErAbAq2B166tElZHPgvk+5FTjfHjcJ1F83oZaui1olMEjmU+xXumNbmlIr43jp9Eq17L9mohaOXIdxy4dokskNyj9ClETXKrXm9h2UQAAEQmGcCCyFI5sKan4L9FF83aQoVcVs6kt9nJUj2Ihtvl5hl2xrfWyZIzivSf60WJOWnluRoiz5h4gw+AgEQAIHcCMynIJGVu1MIfgWM4fBTPBeGMJny8nYTdtqmaC7WutyfuU0YqRLdgkgHUoIkvhwiGiac0W+JWR5C0hQvFkban3ZPFeaWGdWItbrNoQAIgAAILACBxgRJZFvzSwR5rNL94NiMWpiLFBx+h8SrmIuBckVPNkmDQ+ZHaFxg6mdV6pX6bZ4RIXXRTLdIiklBspuqYINlFEU0PTQ8GMv1VGycyioJdNW55f7hwSHVteK84SCOqWoWxhsK0nC5Yrj1819kKLdJ1IWWF2DMwR8QAAEQiBJoTJBUytPfi7jfKxcL0vRY5IfX0gmpSeZbFnetqVlB8rzSvxoXGVZKReRH50pORu13PEQXhWPqB3U2zHqCpH5roIpPVNSP5m1+l3pjYjQipH+NLU9PlYnD0b4RJ6WuGDPy/1p0GUP6swttCoKErSEIgMBiI0AFySbTRX9A9y4019P9DT2PYxAAARAAgQUnAEFa9Oq74GMIDoAACIBASwhAkCBIIAACIAACWRBYmoLUEq2GERAAARAAgXYSgCBlsS5oZ5ejLRAAARDIkwAECYIEAiAAAiCQBQEIUhbdkOdqBV6BAAiAQDsJQJAgSCAAAiAAAlkQgCBl0Q3tXIOgLRAAARDIkwAECYIEAiAAAiCQBQEIUhbdkOdqBV6BAAiAQDsJQJAgSCAAAiAAAlkQ8AVJ3Q9b3MXT3Dm7nfKItkAABEAABDqWABck8rCi1P1JO5YUAgcBEAABEJhXAkyQypP2WUHqwQfkAXSL7Tbm80oNxkEABEAABFpOgAqSeMSOe3KPfOQdeZvFFcaWxw+DIAACIAACmRCggkSfZzqgnj7nnp6HHRIIgAAIgAAIzCcBCBJ2fiAAAiAAAlkQoIKES3ZZdEkme2e4AQIgAAJtJkAFaQA/amgzfTQHAiAAAiBgCTBBKnk/+8afIs3n1VLbBzgAARAAARAo9Q9wQeofcH8YW50qIx2DAAiAAAiAQLsI+IIElQYBEAABEACBBSEAQcIPGUAABEAABLIgAEHKohsWZDGCRkEABEAgKwIQJAgSCIAACIBAFgQgSFl0Q1aLFDgDAiAAAgtCAIIEQQIBEAABEMiCAAQpi25YkMUIGgUBEACBrAhAkCBIIAACIAACWRCAIGXRDVktUuAMCIAACCwIgSJB2tl73pae3Rs2bl3XtWn9xp7N3Tu37zp7QbxEoyAAAiAAAkueQFyQ9uzd17Whu2tT96sOvPvNt9173T33XX3HZ1799vd379q7Zu36nb3nL3kuCBAEQAAEQKDNBCKCtOesfatWrz3v4tfd8bXHDh87Sf8dfPDEpde+b8WKlTv2vHi+HCU3eG2wCXH/vSV1H1jvOSBFFxWXXOxFwTY4HuZQLCQvzuT1mEoxQeRr3sd8frG3645qcxhCCzuAF33rgSD1XbBm7fqLr7mJ6pB3/NahP12xctXuvS8tycec6+kh/jczOjRnIilBqkyl8sK8J2WbAqr0Ee9zjjQ5u8K0mGwrFfvg2AweP998WgnJZ5qUU/3efMjJoYVnRrcUZgFnfOQI+ILUva10zitfe+f4E54IeW8ve+et6zduVYJkE195slqdt3uED47NpARpfsfN0Pi0DUooUytENylFqmPCtOg6rMFgy5Pt0c6mHWvQ/wUq1gLy7fG8LYK0xDoX4SwCAr4grV7T9Z6jDyn5uegtN15188etFF13z31nv3y/0qqPfuPxNV0bevu+NME2DSPsbWpjIVK8ezmZcefZky/E3OMvV8U2EV6+sB9RDytT1ckRZzCoJT9irfP80uB6WXCwL+ZtunUp56LS9NjI6HQDcmID5FFYO9YBu2IoOcKqoWEeXXy8MoOTI6aKQKFfzIHh0Wmh2baWFz7xwXF2PeLpfdRhcXKqbMO3ywUl8+48ZTgyUZ0qO2tsVUFcZeTJeQqqyJR8opjBIv7vYjTcCGThKisgWtSECd6qPenqCmIMu3xwjOsdyd97q/1iLUa8khgTsQ+obZOLkPuQslaSz7VxI6HOgsyFWWAQHy1JAkyQ9uzdt27jli9OPvnZ7//i8LGT7NGuSwAAIABJREFUO/rOv+DKt1pBuurmjy9btuwjD0z/yXeqX330qXNecfn2nV9gCiSv4On0Jya/mfYyEZi0yEUrHJrBLFXc2dNsea1wcsqsF2tdZSs658mkVdPGyxG81+s5rx0bLldMCqMc0q3TEFR2NrjqTE5akbgaXek36DxrUSSmWNIhqVPmPldGZ9KI/yp8V1I3xEIQZUzH0eFEe1zpirHDPKS0g1Fne1YS1nmZti7PUxnT+ZdnUrXaINWtqNDWRSB1U7/XTayDyhWr/ey86mXqtjtDBrPfQeYjGjsZMKzTzXnhHo/d1zlTMlqdnVywKxx05OA4ewJMkHbsOfeKN11bq9VOvVA78p3q1R/69I2f+roVpNu+/MgVN3z48LGTv3z2+Vqtdvdn/qx7W5kKEh3rdD7oRK8zSGR2sWGdmMlNCVKydW48nNXMk7DzePU6hXV1knR4ddI6KSNq1UNEHCNG6Pz3DKqPmjCrQ6MZljTK9N53OJLFtDUevqHnuUqrJxxmSjNAnUn2u4fUxeW1HrZI/YlhdKYGxPbIyKTsRKustGvYseg+IxX0ec0Gji4cDv6w35mpfqocIxNO45saXWHs1CwLxHM4fAtBCpngTEiAC9Lucy99wzW1Wu2FF2r3/O3PrRR5Bz/71alarfaRT36ue6sQJPKyS8JgKNNkJI7Fy1t8aedoSZIEwzlpgwkmZ7p1ljLkVQ6XQepNMJp6iGPWDXZgYlSR6u1CsnUvZQj/IzuMWKNB7CqKhAXjVZx8aD/RF0HqpMATTfd7+drSFhrgvZx7UYf9jrAqQt2Q9p3/nLCzwM/3h84HNoW2EaVxppQ0mingmraRxg5EdV3FU1NybVPgcUxkN4X9nhQk0YT/amx0hbFrPZMOjQ+GAyY8E2md0AvL40xnE2CCtOvMl3Tv2vvkr58/8dRzSoTecdfIvosuv/W2Dw5cdNnr33unOjnxk2drtdplB67besbn6Q6JZORgKIfzU4/UYHSGJWUPLbAgSW8bm8bqMfAmMdEct+CCpMZ6inw4ExJ90WpBCsaA54nnsHhLq2QjSPKbEpP7qYcxKdIxWgm0UVgpdRbCwd+kINnRWOBJ+FEwi12/iI9CmSQZwLeGHVIBHHxkCTBBKvUPrFi56gc/euJ7jz97+NjJ9xx96Ky+vgMHDtxyyy379++/8MIL33zbvYePnbz/h0//4tlT6zZu2X3mFxOC5G/tw/mjPAhnWpDs9MiOlDTTIzTuLTZdgaQk+PPHApIHIll4S1RegFXnrpJEk2zdZiVlh1QxMaaac6Gxkp5B5p4yxZ2MFBDF/NRvivnnqcPppnn4JiJRvhG2zmGpT25xQJxJ9ntyW+N5SwNRwYbupXdIYvHhVMQEaKCxDnInRQ9OjohhTzbr+qSuEvoQ2dzzKnQChkG51gudjLTLynOf2UdBsBCkYj74VBHwBWlzz+67jxz91vFnfnOqdv0HDt51112VSuX48eOHDh06cuTIO2646adPn3r4x8889N1HutZvKfq2g6QJdfFBZ5ChkbL7W6XYiE+syhOZV0ytyEep1vkUCiuKM+YSihkiYj43kjFNeZkLTHKRBs31t3Tr1BNWJZjYthV1QCvSj7zULD6qSz7WlrBjYknZ52VEnzq1oDZ5+M6a6HGSx4eG9bWglMNSkKxXrPVUvycFiQ2eGPlwiBYIktocmz0S/Xkn5eAdC5+nRvlfNUhPzLZG8PFHYKTfKUZZxX47xayJkWAIe574b8PYya91ovPOt+CUD4LkBnyaEsr4grSz9/y+vr7Bo/efeqF2ze1HLr/+du/fiaee+8I3H7vk0tf0bN9bJEh6fa0np8tQKpvYOWu/0VVfw9rz8sDVEl0ohEG9jDyICcNfNK+5S+fODs+J4az2py67CGOaiiVoPpKYq+5PggpbF4lVvk5H56okx25h7FH4afLceZdE1HnrmPAu2l8MiHDMAaf+8/BZoyqBagAmEaccFudnRsfMDQu8BQSpRdwoUhEbICNP7Gi/dJhJU24Pp6IuiJdikRd1mSSLT0n/yj8VaGTM20Cq0+Nl+nMJbxiz/vK7W/RLMnbilYBieoqFEzOIAiDQGAFfkEr9A93bSqvXdj3w8A+83zKot/d/+9G9L3rxpi07evsuYDmlsfZQBQTmSkAJkttnZ5IBAyUWfiJlZ9I7cGNxEIgIUql/oGtDd6lUOutlF739Y5WhB44fPnby4IMn3vWJrw5c+bZSqbRy1Zq55hSoFwjMmkDGgmT2MWaLQzaUmDIgAAJ1CcQFafuus5cvX969rbRh49YVK1YtW7Zs+fIVXeu39Gw/c+Wq1Zt7dte1iwIgMF8EMhUkdlXZu7w5XyhmLeqoCAJZEogLEuYPCIAACIAACLSZAARpcVxabfOwQHMgAAIg0H4CECQIEgiAAAiAQBYEIEhZdEP7VyJoEQRAAARyIwBBgiCBAAiAAAhkQQCClEU35LZOgT8gAAIg0H4CECQIEgiAAAiAQBYEIEhZdEP7VyJoEQRAAARyI7AIBCm841xuEOEPCIAACIDA3AkEgiT+DN6+yL1Ki/6sd2QiuF2jvM8juZFXozeajOxXWipI3t0h5+MGkaIJcguZ1IPpIpE21Z3uTpqqu+bvLjWVKRZO0UiYdVDDo9NktMxLE7P2DRVBAATaRIALklQjm30Gx8bLjaSGofHpuCCRvJyTINkAmxKAhgu3SZCUP0KW5k+KZO+35cEBIxO4D2kjcw1lQGBJE6CCJHcPyezmHqngMiDbTsmFulEm8QCFMSJUVpDsgcTqdj9iGT4iHycxMzqk9zHq8QGqzKh5OoNrXVogGwW6xNaPSrOfGhEK1ML2rpZVGybZHZIwjR3x5JuJiio8VdaPxlBVgiZoyMSU95AbEaZ+kablUzkmKuRBO7yDQkFS+mEDd7hE01Nl96AHi0s4zJ/UoN8Sl7RnNvy0PKfIixWW88rJjwVuorcfUW7e03cqUyIuB1PHkozd9LJwwAzRdAhtWgzCARAAAY8AFST+oBczh2UFkTVMzpJqQdMiTxyqAfVsGPdcH1vGHkj7VJDUI2FkEhQZWRzIVlRaNKlQeGKO6WMxVcpmSbbqfLYpJlALG6bObtaCrUJjd61Lr0RhmWT1gXQsaMKFTE1Z++JAWLOJkj5pzSRxG7LXf6J12hfmyTemvHNYp2/TCknNSUGiXem1m34rh0eEfEFnqQfwBOQdtyiiiLQUDBUbi+Nsux4HIAACeRAggiQyslmbm3W0zms8NfhPGfc+lYHph5XZq3m2jD2QxVwitueDA5v6VU5xVbzHgMptClVNk5Rp6tfp0q7GXTan4ZO+Ic1JO4KMSJ3ivNVLdjALQfIkgVkIJYeKQfip57ArIBXX8KGPJ/da91XTf+4cgUM9McfMeXNS3QnbjC5hgbcifGtWkILynq4rLedqTfyhowLHIAACWRBICJJIGS6ziBznv0g6sBJCUpXNYnqTZMvYA1nYZU91Eaaf/ATAlHRllH0jCeSKjXPOJFwvyVrWLig/N0VzYpjUjG7Zb1aEe40KkoxOOsvFUmRn72ULWJK+w5KG0xsD3/qjyrsCxnNjx0qCx8qe19CKHTDWGGHTC/Zk7CGkdBcVhW8GgGqCDQP+kfUhGbuBY0viAARAIEMCRJD8DYfL3d4898OIZQeXxdSntow9kDnCZZlZChLRRZZ0vCRrM6MLyo8imhNbLkjKSdFWlTy1uuBiqbjSZcXJ9zl0j2zdVOGcBCnVWbO6ZGeuPVIm3kB1sbOxYQcDDkAABPIiQAXJS9bkrd2URCc21xibB00ald9yj03pa/e8cKOCRK7nuCreZR/mW8sEiTQne86gSO+Q2Jcl/vdDxEmiNAQ1KRCQjAydMOcmk7JUQbd3EW/VNTSP1fzskIo6C4IU6VkqtDgGgQ4hQAVJX1AyOYtmSXHsvm7pHxgcGnaAXGpz84pkW3OdSi1paVqUx06o1OV+q1jmQGRY90MGkS6N1Hk/ZBgoDQ0P6oTuJVnrGA3KnpQHwpnoEp4maNd6gSDJ79jMb0BkjNrhoZHykG2UeyJ0jnzF4gJp7Q7J/RBAKJnZZPjH9GJa8MWM6/dAO+VHKfIFnRV8paQsp4YKva7LfUiKsSlGI60XiO0pHIAACLSJABckNdXJtxlGnPRXSvYTKwlqVot5rl4kx5EyIknZ9KcERhaXv0JWVYov2U2OuCb419TEmmtCfQFGnLc0uQyYPCWiSAoSezS1DapIkFQSt0jGjHjLDGtOM4EXDghNsi8njUzaicMOiKpksCSTsmh9ZnTMtuKaUD8xUGbUj+85OiHD5lMTC/GEZ/akIOnNojFlx4OqTvrROcZOmgWKZmVGGm09GbvxFoJEceEYBHIjEAiSmbq5OQp/5kpACZLbolmRxgEIgAAIZEEAgpRFN8xVbBpZRkCQGqGEMiAAAgtHAIIEQeoYAgs3zdqx4EB0ILD4CUCQkI5BAARAAASyIABByqIbsIIGARAAARCAIEGQQAAEQAAEsiAAQcqiG7AyAgEQAAEQgCBBkEAABEAABLIgAEHKohuwMgIBEAABEIAgQZBAAARAAASyIABByqIbsDICARAAARCAIEGQQAAEQAAEsiAQESR1R0t+e012g9HgoywiweICBEAABEBgURPwBUneDnlmmj+AgD49Vt4VmzwoYfHfrGJR9x+cBwEQAIElQ4ALkr7DP30CkNz9iPtyuocCCNEyDztYMiAQCAiAAAiAwMIS4IKktzuBINFH0TT9xDZc0AMBEAABEACB+gQaEiTxrRJ9Hpp5jPfCailaBwEQAAEQWEoEIEj1RXsp9TdiAQEQAIFsCTQkSOLp2mSH5G+Y8LsGEAABEAABEJgzgcYECT9qmDPobJckcAwEQAAEMiHQmCD1D49OV6fHhoXTQpyq+FOkTPoPboAACIDAkiHQoCCxP4zVyoRNAwiAAAiAAAi0jkBUkPA9PwiAAAiAAAi0mwAEqd3El8zmGoGAAAiAQGsJQJAgSCAAAiAAAlkQgCBl0Q2tXWXAGgiAAAgsRgIQJAgSCIAACIBAFgQgSFl0w2Jcy8BnEAABEGgtAQgSBAkEQAAEQCALAhCkLLqhtasMWAMBEACBxUgAggRBAgEQAAEQyIJAkSDt7D1vS8/uDRu3ruvatH5jz+bundt3nV2sutt3vmhz9871G3vWdW3asGnrlp7dO3vPK6jS2/dbW884a9OWHV3rt6xbv3nj5u3d23p3731pQRV8BAIgAAIgsCQJxAVpz959XRu6uzZ1v+rAu998273X3XPf1Xd85tVvf3/3rr1r1q7f2Xt+yGJn73mr13Rt7X3Ra37vlmvu+I/X/dFfvunWP/6f3/QHazcIMdtz1svCKtt29K1cufqsl1105b8d+t2Dn3/n8J+/4Q8Pv+TVb1yxYuXmnl2l/gvCKjgDAiAAAiCwVAlEBGnPWftWrV573sWvu+Nrjx0+dpL+O/jgiUuvfd+KFSt37HkxJbJj97krVq7a//v/7tDf/Astf/jYydu/8ug5r7h89Zp1niZ1b+tdt3HL7x78vFf+8LGTN/3Hv9na+6L1G3toEzjOkEDzDyIhd+lt3f2vFpTMyER1ZnSoocsdzeNqyOyChr+AHobkg0ddL/gYE88ylS/y+J756a/8Yp8V/ECQ+i5Ys3b9xdfcFOqEPfPWoT9dsXKVvbC2+8yXrFy56vfu/KItEB684qrr1q7baHti+84XdW3uueVLfx+WVGeGHji++9zf2ty9S1YRWYy/psoy2vIkPz05opqQ53UZcYY/z0ndsNy/RaxXpj5NMQLciw44eUN091G1WhWOhVFUqyqXifIsqZUnzb3V7YCW5pzPsgn3Vhqvcwt2boo+4Mr2S7MHqQw7ODaTcGa+BYl1SsKH1ubQMC0m7SdwDY9Ok7Faf+Al7TfbfYu8fEg+06Sc6PfW9mPrYneJgiWl9owWX5C6t5XOeeVr7xx/IiUV6vxl77x1/catysWuDd1X/tuh4vIf+5uf9g9c0nPGXlGl74JVq9fe+B++UVzl9v/8ww09Z+w68yUqlZPk63ekkB8jRcolJVSuChcbOT5mpqmEhKJVPy+wESBatAYDgeF9ySqKj4LyXJBsthIVdVBSkKpV+5FI9HXyrxhntrww5UHjTvqQm/q0PFnPmfp4Z+PA4NgM63Qu802F0HDhMC026/nIhOuXZut2cvm5k28TvbYIUotikWpUJ5PMz+RVM84XpNVrut5z9CElFRe95carbv64lY3r7rnv7JfvV1r10W88vqZrQ2/fb+0562Vdm3oOjf23w8dOHnzwxIv+1avffeT/sFX+9Y0fveRt/6t6e8O9f7Vm3YZS/8C2nf3nXfyv1cn3Hh3vu+CSof/zuK3ystde/W8+fFS9vfz62zd375ydIE2MjTvJYYKkcncwmlmZRnqX6woVFXoc6TxesQlBGnAje0hEN+ryfrOCJHeNJA8qCZfbMCtaEoJWPr3f4+le7drGB0mMxI6uYge3/cgZMRXtR0QypYeTIyJk9bJ6T2sFJ4mQBJxNRVJGcdAt6A2rKlaZqiZbF7TVa6ISDKTiVpjDcllgGxcHBH6KfNS+Pukcq9q1i/iInKcOyFE02G/dcCtitaRw8MmCL95ZaklHYtH9LqKYKrtFNwmwfyBuajbkXYB2vMlelmLvSLoAT39KWpd+kxjZCJFs3dQjqM1ItgCFHXPS5ZBoXeKnN1CJtUKXjJOp2Hm/C8/YVDXVnZ8lORKIY/SjNh0zQdqzd9+6jVu+OPnkZ7//i8PHTu7oO/+CK99qpeKqmz++bNmyjzww/SffqX710afOecXl23e+aNuOvvMvecP9P3z6k9/++R33/+OyZcsO/LsjtspLXv3G3vMGDh87+fmJX37+76ur163v7futjZu3X/2Bf//X//D08DdP/u7Bzy9btuwDI9+3Vbo29ygN+8+PPvWhL3xzzdr1sxOk08PCrdOp2IjRKcal24WoEUbL6DFX3Ad8GBmzopvpccQUrxgr73xj2xouSNWpsk4oeuTVGUnclLiMadIfnTAyB9msEbjKw6EVyfgWMyThjPjIm7HUCGtdZTE9J+Ws4/NTJJT0HCv+1Hk7NFI23wBRTyQfu4lkrQvLxhOZ1Fiac5Y5q1I/6T76kRgtFrgdcnXIx1phTtICvsMWmmiaq6BxTMbl99Rpm9QU66zUmFdNmBZFdXNMaTNT6X6nrUsPPfIhNHGGjXODmrZOzVJu/JivPFi8w+WKfHhpbC7H+l30FJkg1G16nOxQ7pgaM7SiHkWNxWWHnEpc4VAkBczwiDnQmmJMkHbsOfeKN11bq9VOvVA78p3q1R/69I2f+rqVitu+/MgVN3z48LGTv3z2+Vqtdvdn/qx7W++Wnt2f/MJXarXaE7869bG/+elv/8Edt3/lUVvlhnv/6t8M/qdPf7f6Qk28Lvntq3b2nreua9PfP/Z4rVb7/k+eve3Pp15308cOPnjCVnnL7f/hxk99/a/+36drtdovn31uxYqVbH0nlzI2HSguIXed0G2+JmLjBiI5Kex4b+ujZyNA+GBmmvqOSnmq/ksGn37UITvDBrfo14QgiRZ1NhdVxNAxousN8djgIAqkkeqsygLh8u995Jt1MBmuAmfER1yQvCZIAeZwIpuzdqV7KgNaUGGBgjOGqh4PJnnxnFKQmHw+anza/8Zx0Uadbx6WOpZDh22jwfKIWBZNezldNxTOKWmQx04X1ClT4jxJvq4YcUNE3Ui/89adKQvHsxnMNVLFTbGG5z6tEu9KEwib3ZGFiDdBiNteFuJTwPWpGycFsbPVQ2FdY0S2Xk5fk2jISMQ3Y7+Bj7gg7T730jdcU6vVXnihds/f/tyKhHfws1+dqtVqH/nk57q39m7u2f1Hn/3LWq32z0895xWzb//4Wz+XelS74JLf3tl73tquTd/+4UytVvu76WdsGe/gK//PU7Va7WdPO0HiWYxFGE4eO3R0vnbdTMY9GZ0CtCvDjKf7QAwj9zJLZlHes+x3Axl/6qOgvPVfr9NNM26giypyLaNF1xvisRDUwtOYcqIea919ampF+SemZYEzhH86dt0675FEW7FIpWVRPpFtvT4V48e9zAox1bolr7uVZ0l9Mu5VPATfoKlbSN4LgUumsaCc8ZMa6YJU03RJRCMS5f2XHZMSuPjUnonNBTP4hSmmhW4Wz568Me585r1DGhXemjnrmnYVOUNLUi86CUP7EQHDCDQjSJYhMWYGZLFvdHHgSpocZdfK7qNIgKp1M9NFjBZRON7m6QwTpF1nvqR7194nf/38CaMu77hrZN9Fl9962wcHLrrs9e+9U8nGxE+erdVqlx24busZZ/Vs3/s773o/VZcrbvjwK159xf92ywde+qr9191zn6ryxH8/9cR/P7Vu45bde1+6fuPWz3xlvFarffm/Pnn42MmhB45f/KbrX/v6N1791msvfO2b1U/vlIZ96x/+26rVa9nqKQY0HE8soU+PD9ohHswoQ3+WgiRHXtBzZNzHui2YNkF55r8VHjrVRRU1UkXrExX138ggcw74ickUjrXuD0RRxvwmkHSBGMGRsV7gjPjIMY+Jt+tN22uyxURbJgrilQ3ZYYx9KosJf1ywjqo/HlzrtIwwy1NesiHhpzNCi/kGeUQJ8jZGexA3rr/aoUmNdEG66Ti6dHnrhllCmRZFFSo8ZvD758lyPtXvfusheWPc4eVlWKOy61Xij4xh3gvaoLHG7MhudZtpYXZOgmRk0iF14US9UifD2G1hHSmbd1GbnHzza3Tb4uwPmCCV+gdWrFz1gx898b3Hnz187OR7jj50Vl/fgQMHbrnllv3791944YVvvu3ew8dO3v/Dp3/xrFSXM1+yq3T+hp4zfvU/nr/v/37q8LGTb/jDuy677LL9+/e/733vu/rqq3fs3PW+z3/78LGTUyd+/Z1/+OdVq9aU+gd6tp951TveU6vVPvGw2ISdf8kbrr/++v3797/xjW+84YYbtvX2Hxz958PHTlafef7ff/5rGzZtnZMgiUsBM6NjUypviknrhg5PEF5nRDuMnaQjgB43v0PyVzckZVAVocd0coovgcfDaeAPaFo9GQi/eMKKkQuJ5nwiCUbmpHGGhKaNcHTepRuSKRJtFQz9sK2wsEkxyhmKiI8H0jqvwnOTCTNsSJwhRkgB2pUGrGcnLg9eYeo8/cj3kABPN51okdSlTfjHZACIJkiCds54pkhnzZ68ZzNYLrjW5SQlo8sDnnqrsIh+JLLBWYU+hP1O+Ah0pEqqE33CZPzoj4iRaGFONR4gHw/x4Ro13rqTviBt7tl995Gj3zr+zG9O1a7/wMG77rqrUqkcP3780KFDR44ceccNN/306VMP//iZh777SNf6LSqqtV2b/u6Rf3z4x8/885PPXfvO68vl8qFDhx577LG/+Iu/OHjw4A0fvPs3z9e+ffyZO+68p3tbb6l/oLfvt1auWv1P//LkP/zsfxz7h5/9zu/8zj/90z8dOnTo6NGj//Iv//L7v//7//tfjD/56+cnH//Vvn/1SnnnITJYY5G7NbX5lA0R0cfqCx5hh44kdm2tkQ4z9mXgfASIVsxKkI57VkUNI15RFhAhGKUU48Ca4gNUFFOziA0dGRed9pFG5ZLfNOENRzryZOt2eeu+8I8uC2hFajPsEfNppCupEdY67xFaTFlzNHS8w6Nj+g/RRAHaI1Eg4qToC7NyVBhN7OnWaXTi2HZWshWdPsIQZCCR8VAiP7WIkjc8aWIKhrfxx3fYJmI2iqipyOJDtcg6SGxwh/VvLCsj6k8D/YhEE2bQqt9EmNYpDWZ29uRDkgWrBz1rzMUx0+8GWoyw3jeTX7cKaHQcykCIAEtrNFJlllaRQ8hW8TtxcMj8XKLYMapquiT5qUVqMeTbpK3TqcHGRpyMb2qWVXxB2tl7fl9f3+DR+0+9ULvm9iOXX3+79+/EU8994ZuPXXLpa3q2yz8q6h/o3lb6X179mi//3Y9+XP0fXuHLr7/99z5ytFarfeCPv9Tb2yv/qEg42rWh+/UH3vZfTzzzjUd+ElY5cv//VX3m+d/7w9tXrlotgxeYTNZgcaq+NEPKiQ0TJPWb1+nxwYhOEMtKt5wtO0RYi6Qz/NEvnZHDWk1CYoqpYGToeD/QNMIWud4iGhXWvFQinfcuFBBXZQhc27xP1USSLpOZ6QXiVoVy4NIAvaRMKmqvyBldzyQmvXXQZ0nr6cSknKez2p1xXhGMBbPF9fvM6BD5k6Ci1l348mJp3YZceeMdqxKB7+Fy5FOjUZ1nDdEp42YKwe6PIkKJzyDWKPHWKY25Umf6dsykURGIvEQR9q/KkuH5WZB3nWgAa2IpQeLnU9+ZESBmvsgJ6C/s1EnR9Gnm5ndG3qRWjtl+p1VG+OWNZCcaH1h3eORFMzp2Zseud+NGXKSkVqOjjvvjTM3mvC9IJSkwq9d2PfDwD7wfGqi393/70b0vevGmLTt6+/S95sQvubec8eJ9A1952P2+zta9c/yJv/7m91atWdez/UzLYmfp/K71W27+4NCnxv7RlrQHH/vGdOUv/8uatevr3svVGsQBCIBAjgSUIJkf1ufiofCKLH2UNC5E/s0FyNxUpIVRRARJ7WBKpdJZL7vo7R+rDD0g/mr14IMn3vWJrw5c+bZSqbRSfhXkObFi5apSqXTh63/vD/74v6g72g3+9f937Uc/V/qfXl4qlTaY2zrYWjtL5/f29q7t2rD/ug++9z8dU2p0659PXnXzH23atrNUKm1Vt3XIhpT1HAcgAAKNEshXkOxmRX3pW/eKyGzW+41SQpYzBOKCtH3X2cuXL+/eJoRkxYpVy5YtW758Rdf6LT3bz1y5avXmnt0h6M3dO1etWtOz/cx16zcvX75i2bJlK1au2rBpa/e23uXLl5+x+5ywytp1G7rWb9mydc+atRuWydfqNes2de/cuOWMFSvjFjBXAAAXGUlEQVRX7TlrX1gFZ0AABBYTgTwFSV8MN9f36n7/atLlYiK/OH2OCxK4gwAIgAAIgECbCUCQsBMHARAAARDIggAEKYtuaPMyBM2BAAiAQIYEIEgQJBAAARAAgSwIQJCy6IYMlypwCQRAAATaTACCBEECARAAARDIggAEKYtuaPMyBM2BAAiAQIYEIEgQJBAAARAAgSwIQJCy6IYMlypwCQRAAATaTIAIUvA31QU3WJyDl+6ugurvpOvcEnQOf288ODYTGG++dX7fRnrDyjlAiKmg4K9fQSvC7eCkMCJvmklugqJwOVPBR/zmxCYEggV39JrDkDM8Y/0LsyAAAvUItF+Q1FwVGTBQixZPY3LbXc9yM62zm2QnhaEFmShYEBCbUYflfXmnZ/gD0Oo/XkVoWEJ1Cj4izngw8RYEQAAEWkOgYUFyi26xiqerdXdne3YDXflkvCG1hPersGdSac1U5UXmVS8rV+J295MjrhWXTPk95ElCd4UDazKxhvk92bq8u7u7MbBwRt3AXzQ3VXb7J1bmNB/ng3O4sM+I/0H2F9pjgahPFRb2SCdFkt29X1SknaWf9ZBwSfic+ChwqTCWeusgWAMBEACBkECDghRmcJ2PaAqTD0qxeVk/V8NLo8aD0KAqby4xiUSvj6VZm1VFRZNhk4IkW4kk8Vm0XihI7nkwgoN50kza4cIkXiRI6YpBLS1URhJoB5nwk9aaKlzXGgqAAAiAQFME5ihIXBLYo+cia3PiWVyQjNKw605c5+jzgHnrfmpuWpCirXNBInIomiO7FtK6cNiI0+mQG83yxAIBlRQPXSao5TXnOVNs2atbXBifggAIgEBrCTQoSOqB0OL6F8na+jki5qqY/r/ZEhXoAdMbE49X3imWn1LdlzotFiTjOXfPXZQTAboyvhJwh8mFr0azvG+wnhSpPVBQy2vOp2d2TgY7a8WrGy2DkyAAAiAwTwQaFiSX/qr2YlrBI5BL8sHhLn37edClbxNYzoIkr0OK1L8IBEko0CzkUHYQBMmMRqbTOAkCINAeAkSQ2AU3/UB4th8yokJ+Dh7qip3JnsDY8+ogrOiVdwVEhiU/lyBL/rbtkMwXY25zFjxlkuxUZikJxEITfR/WqvejhgLjEKQCOPgIBEBgvglQQVK/iNPJV8qA+YnB0Eh5yCqKUA4rVJ5alIaGB7VueQJjq89OkGyLQqhM66IJsxuQx+Z3EIpaOr06tTN8PW9JASpC9I945IbJflck2jLfGy2wINGFhXDedKJZT5iQvR4Rb9PEIoUL7OAjEAABEJgFASZI6jqb+U6IJDKVfM0HRgN0kpKaZD4zSTl9yU7kevoyl/WSkiDsT4+PTppK5HqUvGaoz09U+Iapn33FZVppunX+owb99ZIgoLYmY1PGLbOL6pc/uyBONprlw71OAxIS+dl3PPCGFKVRVxtxDGVAAARAoEkCniA1lLZmoXtzqaIEyWy8svFwdvpR0D0tN1jQVuIjCNJcBirqggAIzJEABGm2Ctdy/RAG9ctck5ytbwm9SY8VsnEke7t0+bY5hoZAAAQ6iAAEabad3XJBalpFZus5GgIBEACBLAksAkHCOh0EQAAEQKATCECQsM8AARAAARDIggAEKYtu6IS1D2IEARAAgWICECQIEgiAAAiAQBYEIEhZdEPxqgGfggAIgEAnEIAgQZBAAARAAASyIABByqIbOmHtgxhBAARAoJgABAmCBAIgAAIgkAUBCFIW3VC8asCnIAACINAJBHxBEncz0y9yc9X2/U3v8Oi0u0tpuzug6OY94uY6zd3RR1ozN3XVskduRLsgeKG+IAACIJAvASZIUo3o4yfarw0jE+TRRwshSCmdEILkqUsd9wruLVTwUfu0P99BWQcsEIEACCxRAkSQ/Cwpngeh9gRiXT854jZP/P6b7jzTkuHRaZHc7adme6EeXGS2Yc4Uub+n/pDIodxtqNPGjsynlSnzJAj1IamSevR4QUf6BGjK9p6O4T4aHJthLjn7weMw7EdFDTnLyMsgAAIg0FEEiCDxJ9GV1HN95PON1IUmk3bZxSuhN0ZUZDErCVp4wl1FuTJiEAfbDpGprQWbmmkx1rp8WJF7Mp4xq56ElNrrWLPBwax0Ii1IgX0IkiWAAxAAARAICDhBEnLiHq8nk6l5GDZXGvkAOl3S2wRQ5XAbLKcTQfPkaeiyxZgg+Y5R4aTH1PispCX+sDtqNnYMQSroX3wEAiAAAo0TaFiQqFZZGRB533+ZLVHyGhd9zGvV+6VATJDoJkwERsXGSGYYsBRR4ZvxJ71fsTJDLduTqYNI7A3vyZpqKOUAzoMACIDA0iLgBCl4VrfbCSX3KCKxhlfYVOpPCJIQM5e4G9khzU6QtESJ5qrVpJNcpWalE9ghhasBnAEBEACBWRAgguSnY3fNrfCSXWoLEhckYcp851Tqd01o12MKl5TD/gEhonTrFl8sxD2JwPIJcLmKGxeybb5da6i8aHdWDUUcTriEkiAAAiCwGAkQQepXv4jTOx4qQvLY/hUO+1kBLSbiHxoe1FkyLgOsvNy+8GxOv4Wy+Z2eZK0nBakyUnbJmla3NmMHs9IJCNJiHPfwGQRAIEMCTJBO+2d/pU0vcwkVmR4ftX8z67Y4Iq0rudJfJbn9SlyQ1K5IF54cCbM5sUYvBgpRUS8mYKkdkr5SF6vihCrQpFkJ0mw6tW0NFQSLj0AABEAgMwK+IEXTqxIks/UJ8nhmIUVDaOhk23SibQ0tma5BICAAAh1AAIJE9FXoRJObqiaHCNn/uV92NCSWTTYEmyAAAiCw6AhAkIggIemDAAiAAAgsHIGGBGnRySwcBgEQAAEQWHQEIEjYIYEACIAACGRBAIKURTcsuoUMHAYBEACBlhOAIEGQQAAEQAAEsiAAQcqiG1q+0IBBEAABEFh0BCBIECQQAAEQAIEsCBQJ0s7e87b07N6wceu6rk3rN/Zs7t65fdfZi05y4TAIgAAIgMCiIBAXpD1793Vt6O7a1P2qA+9+8233XnfPfVff8ZlXv/393bv2rlm7fmfv+YsiNjgJAiAAAiCwiAhEBGnPWftWrV573sWvu+Nrjx0+dpL+O/jgiUuvfd+KFSt37HnxfAUpbkNH72JXfyO55O5slLoNYATFkos9EuN8jbTIX/+F5MUZdvvESK32+mzv0+juGzlPDuQX+4LDhwPzTCAQpL4L1qxdf/E1N1Ed8o7fOvSnK1au2r33paV+d89TecudVtwOJyVIlalUXpjnpCympX2lfGhp0gzTYjLjpGIfHJtp4smE8zzIWgoniaIVrYTkM03KqX5vBQRLuIWxu0TRlhlkQ8DBIiPgC1L3ttI5r3ztneNPeCLkvb3snbeu37hVCZJNfPJO4c1tbhqfP+F9wRuvO6eSlSn3ACd5szsb75zMFmlAmBabHlXlydRzqpo2NW9hZuhJC8i3B1dbBKlVHSTViD8ioD2U0MqiI+AL0uo1Xe85+pCSn4vecuNVN3/cStF199x39sv3K6366DceX9O1obfvSxPsGeFi5Ll8ba8t0JP68XR2y0Guh7h7mzJVE3OPv9wiyzYRXr6wH9HWpbo4g0Et+RFrnfdog2tGtx5kz2gvbN0++GN6bGR0mmBMSZcNkEdh7VhmrkccYfGhw5hqQp5nBl1aESj0izkwPDotNsq2lmtFSbvzwXF2PUKeJizIu8LEYXFyqmzD9y7wuvOU4chEdarsrLGtPHGVkSfnh8kwKDIlH7tssIj/uxiJBZPohausgGhREyZ4q/akqaie+cKwy6fAuN6R/L232i/WYsQr3umu+/Qg4Y5xH6LWSFDO/2hJnAQBJkh79u5bt3HLFyef/Oz3f3H42MkdfedfcOVbrSBddfPHly1b9pEHpv/kO9WvPvrUOa+4fPvOLzAFklfwdPoTk99Me5kITFrkohWmwmCWqk7yH3ZOKop05k2MVOsqW9E5TyatebZTcsbWkys734bLFZPCqCfp1mkIKjsbXNZm/IBWJKNZZI3AQj3yBKk1JbKJx1YWo1mGl9EJK2hdPt5XyOC49xwTFoJAZIYNHU7UNzmcrB3WOqUtixk31BJB96wkTI6NSzHyIhyelJOm2IOAE8PYgpUHXjexDipXRkxhdl6dZNAkHHGGDGa/g8xHNHZjPz60Ig90Vs9LM6bqVVdmvRhTbeE8CAgCTJB27Dn3ijddW6vVTr1QO/Kd6tUf+vSNn/q6FaTbvvzIFTd8+PCxk7989vlarXb3Z/6se1uZChId63Q+6ESvp31kdrGRnZjJTQlSsnVuPJzVzBOXBFUOiixUE+Xp2CITMtk6KSMarYfIOSbXxSafEmc8g8qfJsxqUzS/k0ZZ5vUdFk3zDG5o8PCNt56rtHrCYaY07HnwyX73kLq4vNbDFqk/MYzOlFRc1xcjE05ZDQHKUB4zFYnzEXXDwR8OXWaKKYfnSRhjyr0wdn/jZToxZUEN5pnRin2wi11tFFTBR51LgAvS7nMvfcM1tVrthRdq9/ztz60UeQc/+9WpWq32kU9+rnurECTysnuLYCjTySaOxauZtBWZk3YyBJMz3Tp/wmxQsd44kJ6bRXdhYROjilRXSbbupQzhf0OtxC7dSCwJC8arOPkgXcoLULZPSbzCDj1PgSea7vfytbUm8qP3cu5FHaYawOSQuiHtOz85YWeBn+8PnQ9sCm0jWdWZUtJosLimbaSxA1FdV/HUNH650vRROHSTgiSa8F+Nja4wdr1aEuac9MbiMn7qKExh4aSJ185fHICAJcAEadeZL+netffJXz9/4qnnlAi9466RfRddfuttHxy46LLXv/dOdXLiJ8/WarXLDly39YzP0x2SNRrZ7IfzU88TMrfVIA5LyvPhItE2F0zOYCJZm0lJKJxUdnYpAah3yYLPOpLjkq3zHBdJi0n3gthVSdIocV4TS5EPS1pu3kf+eQo83TQP33SfF3ssUs9h8ZYOG7vkp25IO85P3oqzwM9HyAc2CwRJDQ+d/KmHsaA0UovLRmE9dxbCwR/2uzhDRqaTNxGskUmvH+u8DWO3gYiPkmtKZtYj7L21BnEAAoIAE6RS/8CKlat+8KMnvvf4s4ePnXzP0YfO6us7cODALbfcsn///gsvvPDNt917+NjJ+3/49C+ePbVu45bdZ34xIUj+1j6cPyofhTMttSqPlDTjPjTuZqMs4wrwnOjOG1MmSyYHh2c5Wp67ShJNsnWblVS7pEo9xxIheAYj4XAnIwVEaC5x8wL+eepwumkevkEnyrstUTpe57BonewgiTNe7xA4PA+6Kp63NBAVcuheytSAXIc5FTEBcnRBgMLJyREx7M02Ql/iduoS+hC5VKvtGPsERRhUHZeM55F2zUfSAveZfWTcUGtTtyFz5Bv0AcU6i4AvSJt7dt995Oi3jj/zm1O16z9w8K677qpUKsePHz906NCRI0feccNNP3361MM/fuah7z7StX5L0bcddOSJY5NBhkbKQxZxbMS7Va0tJg5IcmHn4x+lWudTKLQpzvDlZHmMfAlPA3FTzvdH5AKTXKRBE3u6deoJq5JuRc1/WpFmBJKPjHt1ycfaorGk7PMyok9dAqI2efjOmuhxkseHhvWvHlIOy16whFnrqX5Pb2sowBj5cIgWCJIcpeTyWJwDZaJVf2p0bIaqsvTEbGsEH1+zqduaJMUoq9gNE7MmWjSEPU/8t2Hs5Nc6hVPSda7eNZLLkmZq0DI4BgFFwBeknb3n9/X1DR69/9QLtWtuP3L59bd7/0489dwXvvnYJZe+pmf73iJB4r/ZdTNTZRM7ad0yUG6q7Hl54GqJqSIWeuplpq6YMPxF85q7dO7s8JwYzmp/6rKLMKIpZ8qfvSbvB666PwkqbF0kVvk6HZ2rkmylMPYo/DT54slgHRPeRfuLpRjhWJwSD581qhKoBmASccphpTpj+ptIbwFBv3ohbhSpiA2Qkfdad9+aJE25PZzqtYJ4WbeqriRDV3xK+ndyhPwRHjmvcbmKNpDq9HiZX8GTA1tXsFrOuoC6lIzda930FK0bOyatN1ol6VvMPgovGQK+IJX6B7q3lVav7Xrg4R94v2VQb+//9qN7X/TiTVt29PZdsGQoIJDFREAJkttn06XAAh6LZE0kkP/GAWkUBECgAQIRQSr1D3Rt6C6VSme97KK3f6wy9MDxw8dOHnzwxLs+8dWBK99WKpVWrlqzmPJXAxQQzmIikLEgmb272eKQDeViIowpAwILRCAuSNt3nb18+fLubaUNG7euWLFq2bJly5ev6Fq/pWf7mStXrd7csxuzCwQWjECmgsSuKnuXNxeM1QKlFcQLArMjEBek2dlCLRAAARAAARCYNQEI0gJ+64CmQQAEQAAEHAEIkmMxa1VHRRAAARAAgbkTgCBBkEAABEAABLIgAEHKohvmvrKABRAAARBY7AQgSBAkEAABEACBLAhAkLLohsW+roH/IAACIDB3AhAkCBIIgAAIgEAWBOZLkMRttTrrz9T5Lc4a+YPERu91pv/sn9wFIIuhM/fVECyAAAiAACUAQWpVcocgtYok7IAACHQoAQhSqzp+XgWpVU7CDgiAAAjkS4AK0vDo9MzokHvKg7t1Mb+4ZJ/aMDg2M1FR5afK+vEQ+mb48pLduH08BL/c5Jpgl/WGxqfFgwzsp+6++nRPR4/Jbe2r9DEE8kEAI2HrovzkiLtLP7+oSKyRpitTVXn/f33v/uBRC+q85EBqkRv4s9jd+akyp0rjosfWW2ZHXBLkzwJgjqlbTfObTzdyFRFlQAAEQGDhCHiCVHWPSvOe90XyHRUkJQMyaYonndhHwqg0qiVNZmEjb0JvzLFMqVYVdLJu5okplZHTjar0LVo0plKtK8kxmV14Yo75AwC92N1zgJjDQYtGkEQg5ljqq2mFxi51l1ClIhQci3aNkUi8QXkIUr5rwEhnmTGMj0Cgwwn4gkSyHsmefC3PBElqgDjDD0SyJtnW5W5uij2wnOXx5hMKsZxqXQqSEzwbiP+gZbn50CiEOEWr8Gt0xHlLQ40t1wrxMP6g22Rial6QkqaaBwtTIAACINAWAr4gmb2Lvpe+fpvIpPZBljYF2wOnQDIMm5TFgf8y6V7kdHPcaPByy2INGgksat2UEWrhxEbuV6wdeeAEiVSxgcgnk1JvnT6J1r2XtGDh6EUQp1q4MooIknuELnGv0AikCARAAASyJrAQgmQurPnZs2lBEiritnQkv89KkOxFNt5hxCzb1vjeMkFyXhFlbbUgKT+1JEdb9AkTZ/ARCIAACORGYD4FiazcnUK4TQnP+/3NP/KZS4Lbu8ivsqIXDEUZsgkjVaJbEOlhSpDEl0NEw4Qz+i0xy2NMmuLFIrKRdk8V5pZzG2TwBwRAAAQaIdCYIIlsa36JII9Vuq9zyY5XMRcD5YqebJIGh4a1o1xg6ntPvVK/zTMSqC6a6RZJMSlIdlMVbLCMooimh4YHY7meio1TWSWBrjq33D88OKQkR5w3HMQxVc3CeENBGi5XDLd+/osM5TaJutByXS1EARAAARBoE4HGBEmlPP29iPu9crEgTY9Ffngtk6PUJPMti7vW1KwgeV7pX40LcFIqIj86V3Iy+v+3awcpCMNAFEDvfwcXHkjwStKYhAlYV6X8lufG4iJO30B/hma+4ym5uBW2TW/zM94PrcNHDaR68Pr1/B6an21reTMWGyHUD7+1n9+PUvBuZrRcGcu07x66i2Ed+/pSAunHoDm744IAgUSBGkiJ9e0+qf8+bursUldY4+Q+91vv0TUBAgQuKiCQxBIBAgQIRAgIpIg2XHQ7o2wCBAgcKHDPQDoQyFIECBAgcI6AQDIhESBAgECEgECKaMM5uw//QoAAgWQBgSSQCBAgQCBCQCBFtCF5z6I2AgQInCPwAdNI2jnS1+CFAAAAAElFTkSuQmCC;" vertex="1" parent="WIyWlLk6GJQsqaUBKTNV-1">
          <mxGeometry x="-509.99999999999994" y="480" width="354.6" height="328" as="geometry" />
        </mxCell>
        <mxCell id="nkGsaYFJsJ_S0IKPwyXY-11" value="" style="endArrow=classic;html=1;rounded=0;fontSize=12;startSize=8;endSize=8;curved=1;exitX=0.626;exitY=0.386;exitDx=0;exitDy=0;exitPerimeter=0;fillColor=#f8cecc;strokeColor=#b85450;" edge="1" parent="WIyWlLk6GJQsqaUBKTNV-1" source="nkGsaYFJsJ_S0IKPwyXY-12">
          <mxGeometry width="50" height="50" relative="1" as="geometry">
            <mxPoint x="-600" y="730" as="sourcePoint" />
            <mxPoint x="-410" y="740" as="targetPoint" />
          </mxGeometry>
        </mxCell>
        <mxCell id="nkGsaYFJsJ_S0IKPwyXY-13" value="" style="endArrow=classic;html=1;rounded=0;fontSize=12;startSize=8;endSize=8;curved=1;exitX=0.626;exitY=0.386;exitDx=0;exitDy=0;exitPerimeter=0;fillColor=#f8cecc;strokeColor=#b85450;" edge="1" parent="WIyWlLk6GJQsqaUBKTNV-1" source="nkGsaYFJsJ_S0IKPwyXY-9" target="nkGsaYFJsJ_S0IKPwyXY-12">
          <mxGeometry width="50" height="50" relative="1" as="geometry">
            <mxPoint x="-660" y="680" as="sourcePoint" />
            <mxPoint x="-410" y="740" as="targetPoint" />
          </mxGeometry>
        </mxCell>
        <mxCell id="nkGsaYFJsJ_S0IKPwyXY-12" value="that is why position - 1" style="text;html=1;align=center;verticalAlign=middle;whiteSpace=wrap;rounded=0;fontSize=12;fillColor=#f8cecc;strokeColor=#b85450;" vertex="1" parent="WIyWlLk6GJQsqaUBKTNV-1">
          <mxGeometry x="-720" y="780" width="180" height="20" as="geometry" />
        </mxCell>
      </root>
    </mxGraphModel>
  </diagram>
</mxfile>
